<svg xmlns="http://www.w3.org/2000/svg" xmlns:xlink="http://www.w3.org/1999/xlink" width="1920" height="576" viewBox="0 0 1920 576"><defs><linearGradient id="a" x1="0.24" y1="-0.062" x2="0.983" y2="0.921" gradientUnits="objectBoundingBox"><stop offset="0" stop-color="#11b6ca"/><stop offset="1" stop-color="#1495be"/></linearGradient><linearGradient id="b" x1="0.5" y1="1.203" x2="0.5" y2="0.255" gradientUnits="objectBoundingBox"><stop offset="0" stop-color="#158bbb"/><stop offset="1" stop-color="#11b6ca"/></linearGradient><linearGradient id="c" x1="0.781" y1="0.168" x2="0.784" y2="0.839" xlink:href="#a"/><clipPath id="e"><circle cx="269.5" cy="269.5" r="269.5" transform="translate(348 509)" fill="url(#a)"/></clipPath></defs><g transform="translate(0 -480)"><rect width="434" height="365" transform="translate(0 567)" fill="url(#b)"/><circle cx="275.5" cy="275.5" r="275.5" transform="translate(336 497)" fill="url(#c)"/><path d="M290.5,20C141.346,20,20,138.43,20,284S141.346,548,290.5,548,561,429.57,561,284,439.654,20,290.5,20m0-20C450.939,0,581,127.151,581,284S450.939,568,290.5,568,0,440.849,0,284,130.061,0,290.5,0Z" transform="translate(336 488)" fill="#fff"/><rect width="1145" height="365" transform="translate(775 567)" fill="url(#b)"/><rect width="81" height="4" rx="2" transform="translate(619 849)" fill="#5de0f5"/><g transform="translate(-12 -29)" clip-path="url(#e)"><g transform="translate(-641.757 0.926)"><path d="M1292.377,546.21a3,3,0,0,1-3.245,2.976,3.192,3.192,0,0,1-2.023-.657,2.356,2.356,0,0,1-.807-1.9c0-1.722,1.447-2.083,2.658-2.083C1290.768,544.547,1292.377,545.478,1292.377,546.21Z" transform="translate(211.753 173.77)" fill="#aedcf2" opacity="0.53"/><path d="M1037.5,741.132a3.469,3.469,0,0,0-3.579,3.218A3.623,3.623,0,0,0,1037.5,748c1.727,0,2.717-1.292,2.717-3.552a3.6,3.6,0,0,0-.856-2.61A2.564,2.564,0,0,0,1037.5,741.132Z" transform="translate(362.696 56.198)" fill="#d9d3fe" opacity="0.53"/><path d="M1079.616,741.024a3.173,3.173,0,0,0-2.169.786,3.243,3.243,0,0,0-.953,2.518,3.157,3.157,0,0,0,3.336,3.283,3.06,3.06,0,0,0,3.245-3.272A3.29,3.29,0,0,0,1079.616,741.024Z" transform="translate(337.232 56.263)" fill="#d9d3fe" opacity="0.53"/><path d="M1124.258,741.862a4.13,4.13,0,0,0-2.077-.57,3.424,3.424,0,0,0-1.695.43,3.8,3.8,0,0,0-1.641,3.552c0,1.851,1.969,2.965,3.88,2.965h.006a3.064,3.064,0,0,0,3.374-3.148A3.583,3.583,0,0,0,1124.258,741.862Z" transform="translate(311.905 56.102)" fill="#d9d3fe" opacity="0.53"/><path d="M508.265,299.039a171.58,171.58,0,0,0-1.835,20.9c-.275,7.883-.473,7.883-3.837,7.883-1.6,0-1.835-.371-4.693-13.329-.748-3.38-1.674-7.582-2.863-12.743a.409.409,0,0,1,.28-.484,81.918,81.918,0,0,1,12.5-2.7h.054a.393.393,0,0,1,.285.118A.42.42,0,0,1,508.265,299.039Z" transform="translate(684.992 320.884)" fill="#fdf39f" opacity="0.53"/><path d="M515.652,399.877a1.5,1.5,0,0,1-1.475.748c-1.27,0-1.49-1.329-1.528-1.9-.07-1.092.371-2.153.92-2.223a1.789,1.789,0,0,1,1.808.8A2.672,2.672,0,0,1,515.652,399.877Z" transform="translate(674.457 262.323)" fill="#fdf39f" opacity="0.53"/><path d="M311.19,389.918l-2.192-1.2a2.425,2.425,0,0,1-.958-3.288l1.2-2.184a2.781,2.781,0,0,0-1.1-3.775l-1.592-.873a2.78,2.78,0,0,0-3.775,1.1l-1.2,2.185a2.417,2.417,0,0,1-3.288.958l-2.19-1.2a2.78,2.78,0,0,0-3.774,1.1l-.875,1.6a2.78,2.78,0,0,0,1.1,3.775l2.189,1.2a2.427,2.427,0,0,1,.958,3.288l-1.2,2.186a2.78,2.78,0,0,0,1.1,3.774l1.593.875a2.78,2.78,0,0,0,3.776-1.1l1.2-2.187a2.417,2.417,0,0,1,3.288-.958l2.19,1.2a2.781,2.781,0,0,0,3.774-1.1l.874-1.594A2.78,2.78,0,0,0,311.19,389.918Z" transform="translate(806.953 273.226)" fill="#d9d3fe" opacity="0.53"/><path d="M224.329,684.988c.581,1.9,1.1,3.616,1.8,5.645-.07-.059-.14-.118-.21-.172-1.593-1.313-3.1-2.551-4.558-3.789a1.984,1.984,0,0,0-2.588,0c-1.878,1.6-3.815,3.094-5.613,4.429.21-.64.425-1.281.64-1.91.737-2.179,1.431-4.24,1.948-5.892a2,2,0,0,0-.979-2.368,65.946,65.946,0,0,0-6.076-2.777c1.507-.2,3.492-.425,5.785-.683l1.8-.2a2.008,2.008,0,0,0,1.733-1.572,38.312,38.312,0,0,1,1.937-6.915,34.993,34.993,0,0,1,1.561,6.011,2.017,2.017,0,0,0,2.2,1.6c2.346-.285,4.65-.57,6.99-.872a84.844,84.844,0,0,1-5.941,7.539A2.01,2.01,0,0,0,224.329,684.988Z" transform="translate(856.242 99.47)" fill="#f1a7c5" opacity="0.53"/><path d="M879.514,411.625a5.18,5.18,0,0,1-1.367,3.826,4.227,4.227,0,0,1-2.981,1.151,4.124,4.124,0,0,1-4.348-4.143c0-2.874,2.932-4.171,5.015-4.171a4.14,4.14,0,0,1,2.637.829A3.07,3.07,0,0,1,879.514,411.625Z" transform="translate(460.242 255.262)" fill="#cde194" opacity="0.53"/><path d="M928.285,386.429h0a1.756,1.756,0,0,1-2.36.578l-2.779-1.606a2.423,2.423,0,0,0-2.578.086c-.637.428-1.715,1.154-2.667,1.789a1.754,1.754,0,0,1-2.094-.109l-.2-.162a1.756,1.756,0,0,1-.06-2.653l4.476-4.06a1.756,1.756,0,0,1,2.183-.141l5.6,3.894A1.756,1.756,0,0,1,928.285,386.429Z" transform="translate(433.832 272.279)" fill="#fdd985" opacity="0.53"/><path d="M381.72,590.7c-.85,5.731-3.256,19.733-7.216,25.927a1.708,1.708,0,0,1-1.319.753l-2.422.156c-.151.005-.291.005-.425.011-.119.005-.253.01-.35.005-.4-.64-1.044-3.309-2.077-7.582-.942-3.9-2.362-9.789-4.574-18.259a1.183,1.183,0,0,1,1.033-1.48c2.572-.215,5.3-.334,8.185-.457,2.594-.108,5.279-.226,7.889-.42a1.194,1.194,0,0,1,.974.377A1.153,1.153,0,0,1,381.72,590.7Z" transform="translate(763.776 146.975)" fill="#cde194" opacity="0.53"/><path d="M386.2,681.556a3.617,3.617,0,0,1-3.724,3.654,3.077,3.077,0,0,1-2.179-.829,3.914,3.914,0,0,1-1-2.868,2.212,2.212,0,0,1,.769-1.862,3.348,3.348,0,0,1,2.077-.6C384.023,679.048,386.2,680.146,386.2,681.556Z" transform="translate(754.203 93.329)" fill="#cde194" opacity="0.53"/><path d="M784.94,316.774a11.368,11.368,0,0,1,3.118,4.5,1.36,1.36,0,0,0,.068-.359c0-.129.005-.253.005-.377,0-10.15-12.587-11.656-17.963-12.3a1.344,1.344,0,0,0-.323,2.669c5.619.674,11.327,1.851,14.012,5.086.266.168.528.346.779.54Q784.79,316.648,784.94,316.774Z" transform="translate(521.338 315.108)" fill="#cde194" opacity="0.53"/><path d="M645.551,414.634c-2.271,0-4.7,1.711-4.7,4.256a4.75,4.75,0,0,0,4.7,4.784,3.334,3.334,0,0,0,2.475-1.012,5.228,5.228,0,0,0,1.157-3.654,4.734,4.734,0,0,0-1.13-3.422A3.5,3.5,0,0,0,645.551,414.634Z" transform="translate(597.778 251.467)" fill="#cde194" opacity="0.53"/><path d="M707.23,416.95a4.2,4.2,0,0,0-2.868,1.039,4.3,4.3,0,0,0-1.264,3.32,4.15,4.15,0,0,0,1.34,3.234,4.674,4.674,0,0,0,3.057,1.092,4.077,4.077,0,0,0,4.289-4.316A4.329,4.329,0,0,0,707.23,416.95Z" transform="translate(560.551 250.082)" fill="#cde194" opacity="0.53"/><path d="M772.551,418.343a5.435,5.435,0,0,0-2.707-.737,4.482,4.482,0,0,0-2.228.565c-1.421.818-2.169,2.416-2.169,4.623,0,2.465,2.578,3.939,5.064,3.945h.011c2.147,0,4.44-1.092,4.445-4.165A4.7,4.7,0,0,0,772.551,418.343Z" transform="translate(523.261 249.69)" fill="#cde194" opacity="0.53"/><path d="M1059.084,436.286c-1.291,1.232-5.887,2.1-12,2.271a1.039,1.039,0,0,1-1-.662c-.92-2.352-3.207-8.266-4.5-12.3a2.02,2.02,0,0,1,1.582-2.61c3.051-.538,6.237-.786,9.315-1.028.587-.049,1.168-.092,1.749-.14a1.3,1.3,0,0,1,.145-.006,1.734,1.734,0,0,1,1.657,1.195c.264.812.543,1.652.829,2.5C1058.018,428.919,1060.155,435.263,1059.084,436.286Z" transform="translate(358.168 247.175)" fill="#aedcf2" opacity="0.53"/><path d="M712.034,697.82c0,5.075-2.873,7.943-6.2,11.263-4.2,4.186-8.955,8.933-8.955,18.964,0,.129,0,.307-.452.527-1.916.931-6.56.151-7.883-.5-1.173-14.4,3.428-16.817,7.5-18.948,2.879-1.512,5.855-3.073,5.769-8.239a5.247,5.247,0,0,0-3.3-5.134c-3.751-1.5-9.406.554-12.135,3.331a.354.354,0,0,1-.258.1c-.016-.006-.064-.011-.081-.032-2.594-3.428-2.825-4.9-2.825-5.322v-.065c4.014-3.735,10.241-5.623,18.506-5.623C711.916,688.139,712.034,697.427,712.034,697.82Z" transform="translate(572.45 87.892)" fill="#fcdc7a" opacity="0.53"/><path d="M703.1,818a4.653,4.653,0,0,1-4.51.436,2.729,2.729,0,0,1-1.329-2.615c0-3.605,3.444-3.907,4.133-3.928.065,0,.129-.006.194-.006,1.663,0,3.412.748,3.508,2.2A4.153,4.153,0,0,1,703.1,818Z" transform="translate(564.043 13.879)" fill="#fcdc7a" opacity="0.53"/><path d="M233.92,520.7a1.345,1.345,0,0,0,1.343,1.284h.063a1.345,1.345,0,0,0,1.282-1.406c-.168-3.682-.361-6.843-.547-9.9-.088-1.442-.175-2.882-.261-4.377a1.345,1.345,0,0,0-2.686.154c.086,1.5.174,2.941.262,4.386C233.561,513.89,233.753,517.04,233.92,520.7Z" transform="translate(841.636 197.401)" fill="#fff" opacity="0.53"/><path d="M210.126,536.187a1.345,1.345,0,0,0,1.229-2.394c-4.882-2.507-7.481-4.606-9.588-7.745a1.345,1.345,0,0,0-2.234,1.5C201.892,531.061,204.862,533.484,210.126,536.187Z" transform="translate(861.855 185.19)" fill="#fff" opacity="0.53"/><path d="M185.889,560.277c2.471.062,4.984.365,7.415.658a72.04,72.04,0,0,0,8.628.688,1.345,1.345,0,0,0,0-2.691,70.042,70.042,0,0,1-8.306-.668c-2.494-.3-5.072-.612-7.67-.677a1.345,1.345,0,1,0-.068,2.69Z" transform="translate(870.663 165.971)" fill="#fff" opacity="0.53"/><path d="M455.106,818.077a1.345,1.345,0,0,0,1.616-.917q.009-.029.017-.06a1.345,1.345,0,0,0-.978-1.632c-3.575-.9-6.658-1.622-9.638-2.323-1.406-.33-2.811-.661-4.267-1.008a1.345,1.345,0,0,0-.625,2.617c1.459.349,2.867.679,4.277,1.011C448.478,816.462,451.55,817.185,455.106,818.077Z" transform="translate(717.784 13.754)" fill="#fff" opacity="0.53"/><path d="M463.094,834.445a1.346,1.346,0,0,0-1.939-1.866c-3.8,3.955-6.563,5.84-10.175,6.955a1.345,1.345,0,1,0,.794,2.571C455.818,840.857,458.992,838.709,463.094,834.445Z" transform="translate(711.903 1.753)" fill="#fff" opacity="0.53"/><path d="M479.2,853.218c.77-2.348,1.783-4.668,2.762-6.912a71.962,71.962,0,0,0,3.139-8.066,1.345,1.345,0,1,0-2.577-.774,70.078,70.078,0,0,1-3.029,7.763c-1,2.3-2.044,4.681-2.853,7.152a1.345,1.345,0,0,0,2.557.838Z" transform="translate(696.023 -0.843)" fill="#fff" opacity="0.53"/><path d="M632.649,451.572c-.016-2.19-.037-4.52-.037-7,0-15.778-.625-25.717-9.3-30.727-5.435-3.137-13.782-4.246-26.934-4.633-.059-55-3.751-78.078-14.018-87.963-7.6-7.313-18.334-6.9-33.2-6.339-4.289.162-9.148.344-14.3.344-33.407,0-50.374,4.37-50.374,28.231,0,4.063.118,9.794.377,14.4-10.133-3.18-21.881-3.563-34.6-3.563a136.955,136.955,0,0,0-17.43,1.012c-1.27-32.713-4.354-47.2-11.662-55.04-10.354-11.1-75.015-10.273-86.085-3.412-8.879,5.5-10.617,16.827-10.617,34.526,0,3.326.091,6.7.183,9.977.092,3.245.183,6.6.183,9.869,0,.683-.011,1.367-.021,2.055a122.037,122.037,0,0,0-33.057-4.45c-8.7,0-18.926,2.771-28.79,7.8a.93.93,0,0,1-1.119-.248c-4.332-4.94-6.1-11.618-6.829-16.348a2.74,2.74,0,0,0-5.07-.99c-4.843,8.19-3.369,17.764-1.286,26.045a.945.945,0,0,1-.339.963c-11.026,8.82-18.07,19.06-19.868,28.854-2.228.183-4.429.382-6.581.608-24.227,2.567-36,7.663-36,15.573,0,3.019,1.27,6.242,2.5,9.358.511,1.3,1,2.54,1.389,3.74a43.569,43.569,0,0,0-24.733,9.17c-8.594,6.99-13.141,17.156-13.141,29.382,0,11.462,10.025,24.3,26.793,25.938a.587.587,0,0,1,.452.258c4.09,6.872,11.586,12.356,18.651,13.642a3.026,3.026,0,0,0,.581.054,3.271,3.271,0,0,0,3.175-3.971,31.746,31.746,0,0,1-.684-6.91c0-1.711.1-3.552.307-5.785a.614.614,0,0,1,.35-.517,32.367,32.367,0,0,0,16.714-15.315c8.518.543,17.516,1.071,26.428,1.27a64.254,64.254,0,0,1-9.912,18.608,2.655,2.655,0,0,0-.167,3.084,2.627,2.627,0,0,0,2.239,1.248,3.161,3.161,0,0,0,.581-.059c9.439-2.061,17.941-9.751,25.26-22.849,7.044-.221,13.55-.71,19.814-1.5.554,13.9,5.037,25.384,13.346,34.155,7.8,8.244,19.254,14.341,34.031,18.13a2.125,2.125,0,0,1,1.6,2.082c-.027,2.3-.032,4.655-.032,6.926a189.485,189.485,0,0,1-.829,21.407,4.763,4.763,0,0,0,2.572,4.811,4.869,4.869,0,0,0,2.228.549,4.77,4.77,0,0,0,3.213-1.248c.8-.715,1.593-1.4,2.438-2.131,5.042-4.353,11.322-9.767,22.6-26.648a2.155,2.155,0,0,1,1.878-.942c5.6.248,11.645.344,17.957.275a28.319,28.319,0,0,0,13-3.3,16.829,16.829,0,0,0,6.582,11.9c16.671,13.066,58.28,3.68,66.454,1.668a.52.52,0,0,1,.42.086c8.32,5.807,18.237,7.023,25.1,7.023,8.336,0,9.886-.269,10.343-1.8.436-1.475-.958-2.384-3.487-4.047a41.251,41.251,0,0,1-9.826-8.276.477.477,0,0,1-.1-.425.52.52,0,0,1,.285-.355c13.464-6.377,21.036-14.384,22.532-23.812,1.049.468,2.142.915,3.3,1.351a.13.13,0,0,1,.086.08c1.286,8.938,6.872,12.754,14.863,15.724a2.921,2.921,0,0,0,1,.178,2.823,2.823,0,0,0,2.621-3.842,15.612,15.612,0,0,1-.118-11.231.16.16,0,0,1,.118-.091c14.5-1.927,24.039-9.24,28.166-21.385,2.9.188,5.861.28,9.041.28,1.071,0,2.12,0,3.154-.005H577a2.478,2.478,0,0,1,2.228,1.372c4.521,9.035,7.873,12.936,11.145,12.936.081,0,.167-.005.248-.01,3.832-.232,5.963-5.4,8.772-13.26a2.5,2.5,0,0,1,2.2-1.647C632.945,484.468,632.87,476.175,632.649,451.572ZM498.127,322.916c7.055-3.482,18.038-4.967,36.727-4.967,5.2,0,10.1-.183,14.406-.35,14.2-.538,24.464-.925,31.233,5.6,9.541,9.18,13.136,32.53,13.195,85.95-5.623-.124-12.059-.14-19.448-.14-40.193,0-43.094,9.164-43.094,24.254,0,1.388.032,2.766.065,4.095.021.963.037,1.873.048,2.755a44.833,44.833,0,0,0-7.97.754c-1.948-38.159-9.014-61.649-22.214-73.832a40.847,40.847,0,0,0-13.469-8.2c-.3-4.693-.436-10.983-.436-15.342C487.171,333,490.55,326.655,498.127,322.916ZM336.5,299.168c9.735-6.027,73.148-7.286,82.7,2.96,6.743,7.232,9.735,21.816,10.957,53.587a60.734,60.734,0,0,0-17.8,5.306c-11.5,5.747-17.333,15.348-17.333,28.543,0,3.03.221,6.038.516,9.078a55.133,55.133,0,0,0-15.2-6.985c-2.314-5.117-10.644-15.493-25.356-24.921A111.216,111.216,0,0,0,327.5,354.089c.016-.947.027-1.889.027-2.836,0-3.31-.092-6.678-.183-9.945-.091-3.25-.183-6.614-.183-9.9C327.157,311.878,329.6,303.44,336.5,299.168Zm-86.494,69.01a3.639,3.639,0,0,0,1.264-3.713c-1.948-7.754-3.352-16.671,1.012-24.049.006-.006.038-.006.076.048.78,5.091,2.707,12.291,7.459,17.721a3.626,3.626,0,0,0,4.369.867c9.493-4.838,19.287-7.5,27.569-7.5,49.18,0,78.12,27.746,85.062,39.2a68.724,68.724,0,0,0-15.111-1.62c-28.548,0-47.668,5.505-60.174,17.334a48.719,48.719,0,0,0-4.7,5.117c.021-.818.037-1.636.037-2.459,0-8.1-2.061-15.6-17.016-15.6h-1.991c-11.57-.005-29.7-.011-46.613,1.2C233.135,385.769,239.749,376.384,250.006,368.177Zm-49.53,114.816a3.277,3.277,0,0,0-2,2.75c-.215,2.314-.318,4.235-.318,6.033a34.387,34.387,0,0,0,.748,7.491.586.586,0,0,1-.151.527.542.542,0,0,1-.5.161c-6.242-1.135-13.158-6.226-16.817-12.371a3.271,3.271,0,0,0-2.5-1.555c-15.25-1.49-24.367-13-24.367-23.263,0-24.7,19.663-35.952,37.928-35.952,7.593,0,14.6,1.921,19.733,5.408,3.81,2.583,8.352,7.281,8.352,14.965C220.586,457.432,217.971,475.707,200.476,482.993Zm81.936-15.729c-6.269.791-12.781,1.291-19.846,1.507a2.63,2.63,0,0,0-2.238,1.361c-6.947,12.415-14.858,19.663-23.473,21.568a67.08,67.08,0,0,0,10.354-19.421,2.671,2.671,0,0,0-2.465-3.508c-8.519-.215-17.107-.71-25.282-1.227a52.729,52.729,0,0,0,3.815-20.358c0-7.017-3.3-12.958-9.536-17.193-5.564-3.777-13.093-5.86-21.2-5.871-.452-1.528-1.065-3.1-1.668-4.639-1.135-2.879-2.309-5.86-2.309-8.368,0-4.262,5.828-9.955,33.6-12.893,19.082-2.024,42.012-2.013,55.7-2.008h2c13.233,0,14.325,6.1,14.325,12.9,0,.915-.022,1.835-.043,2.739-.032,1.216-.054,2.368-.032,3.5-7.943,12.113-11.7,28.871-11.7,51.645C282.406,467.092,282.412,467.172,282.412,467.264Zm101.029,57.376c-6.264.07-12.259-.022-17.812-.274a4.844,4.844,0,0,0-4.235,2.142c-11.069,16.569-16.935,21.633-22.117,26.1-.856.743-1.663,1.437-2.481,2.174a2.1,2.1,0,0,1-2.405.307,2.069,2.069,0,0,1-1.13-2.115,191.561,191.561,0,0,0,.845-21.708c0-2.266.005-4.612.032-6.9a4.805,4.805,0,0,0-3.627-4.719C299.955,511.81,285.1,494.59,285.1,467c0-28.182,5.812-46.8,18.28-58.586,11.979-11.322,30.512-16.6,58.328-16.6,14.373,0,25.723,4.025,34.494,10.558a1.47,1.47,0,0,0,.371.285c17.656,13.41,24.689,37.088,24.8,58.382.086,16.138-3.686,32.18-10.354,44.008C403.959,517.568,394.166,524.526,383.441,524.639Zm107.648,2.739a3.2,3.2,0,0,0-1.13,4.9,43.538,43.538,0,0,0,10.445,8.836c.382.248.775.511,1.141.759-1.97.145-5.091.145-6.523.145-6.473,0-15.815-1.135-23.559-6.538a3.229,3.229,0,0,0-2.6-.5c-21.988,5.419-51.983,8.363-64.151-1.173a14.248,14.248,0,0,1-5.65-11.306c16.053-10.467,25.141-36.356,25.007-61.482-.1-19.039-5.3-36.485-14.648-49.115a55.749,55.749,0,0,0-10.956-11.193,106.534,106.534,0,0,1-.743-11.156c0-12.259,5.188-20.809,15.848-26.137,8.632-4.316,20.632-6.414,36.7-6.414,40.989,0,66.373,4.106,70.366,84.438a38.752,38.752,0,0,0-9.842,3.934c-10.246,5.882-15.886,15.837-15.886,28.031,0,9.617,2.088,17.01,6.377,22.618a31.212,31.212,0,0,0,10.946,8.756C511.187,513.624,504.084,521.227,491.088,527.378ZM536.281,505.5a2.828,2.828,0,0,0-2.26,1.76,18.283,18.283,0,0,0,.1,13.185.133.133,0,0,1-.032.156.114.114,0,0,1-.135.027c-7.3-2.712-12.038-5.93-13.136-13.588a2.81,2.81,0,0,0-1.808-2.217c-11.123-4.17-21.423-10.859-21.423-31.411,0-11.188,5.161-20.314,14.535-25.7a36.861,36.861,0,0,1,10.214-3.918.37.37,0,0,1,.043-.011,41.979,41.979,0,0,1,9.143-1.006,38.843,38.843,0,0,1,19.41,4.983,26.317,26.317,0,0,1,13.518,23.753C564.317,491.6,554.841,503.033,536.281,505.5Zm90.4-29.527c-3.406,4.671-10.488,6.85-25.26,7.787a5.187,5.187,0,0,0-4.563,3.422c-1.615,4.521-4.052,11.344-6.4,11.484-1.119.075-3.767-1.329-8.826-11.446A5.148,5.148,0,0,0,577,484.365h-.016c-1.028.006-2.077.006-3.143.006-2.9,0-5.6-.081-8.244-.237a50.985,50.985,0,0,0,1.544-12.6,28.917,28.917,0,0,0-14.852-26.094,40.987,40.987,0,0,0-18.339-5.263c-.011-.931-.027-1.878-.054-2.884-.027-1.313-.06-2.669-.06-4.031,0-12.049,0-21.563,40.4-21.563,7.932,0,14.831.021,20.793.178h.005c13.211.344,21.827,1.361,26.928,4.305,6.85,3.955,7.953,11.613,7.953,28.4,0,2.486.022,4.822.038,7.017C630.066,463.421,630.136,471.24,626.681,475.976Z" transform="translate(890.217 324.922)" fill="#fff" opacity="0.46"/><path d="M363.3,862.39l-1.983.715a2.046,2.046,0,0,1-2.614-1.229l-.713-1.977a2.345,2.345,0,0,0-3-1.41l-1.44.52a2.345,2.345,0,0,0-1.41,3l.713,1.976a2.039,2.039,0,0,1-1.229,2.614l-1.98.715a2.345,2.345,0,0,0-1.408,3l.522,1.445a2.345,2.345,0,0,0,3,1.408l1.98-.715a2.046,2.046,0,0,1,2.614,1.229l.714,1.978a2.345,2.345,0,0,0,3,1.41l1.442-.519a2.345,2.345,0,0,0,1.411-3l-.715-1.977a2.038,2.038,0,0,1,1.229-2.614l1.981-.716a2.345,2.345,0,0,0,1.408-3l-.52-1.443A2.345,2.345,0,0,0,363.3,862.39Z" transform="translate(772.871 -13.907)" fill="#cde194" opacity="0.53"/><path d="M873.834,399.688a6.8,6.8,0,0,0-4.348-1.442c-3.789,0-7.706,2.567-7.706,6.861a6.8,6.8,0,0,0,7.039,6.834,6.906,6.906,0,0,0,4.854-1.91,7.7,7.7,0,0,0,2.185-5.758A5.723,5.723,0,0,0,873.834,399.688ZM871.8,408.1a4.225,4.225,0,0,1-2.981,1.152,4.124,4.124,0,0,1-4.348-4.143c0-2.874,2.932-4.171,5.015-4.171a4.14,4.14,0,0,1,2.637.829,3.073,3.073,0,0,1,1.044,2.508A5.179,5.179,0,0,1,871.8,408.1Z" transform="translate(465.647 261.268)" fill="#fff" opacity="0.53"/><path d="M318.107,806.037a5.18,5.18,0,0,1-1.367,3.826,4.227,4.227,0,0,1-2.982,1.152,4.124,4.124,0,0,1-4.348-4.143c0-2.874,2.933-4.17,5.015-4.17a4.139,4.139,0,0,1,2.637.829A3.071,3.071,0,0,1,318.107,806.037Z" transform="translate(796.004 19.375)" fill="#d9d3fe" opacity="0.53"/><path d="M512.718,902.306h0a1.756,1.756,0,0,1,1.26-2.078l3.1-.829a2.423,2.423,0,0,0,1.762-1.883c.148-.754.4-2.029.621-3.152a1.754,1.754,0,0,1,1.558-1.4l.253-.024a1.756,1.756,0,0,1,1.918,1.834l-.294,6.036a1.756,1.756,0,0,1-1.444,1.643l-6.71,1.2A1.756,1.756,0,0,1,512.718,902.306Z" transform="translate(674.437 -34.588)" fill="#f1a7c5" opacity="0.53"/><path d="M1281.939,535.842a5.932,5.932,0,0,0-3.573,1.06,4.4,4.4,0,0,0-1.776,3.713,5.057,5.057,0,0,0,1.776,3.966,5.836,5.836,0,0,0,3.746,1.281,5.693,5.693,0,0,0,5.936-5.666C1288.047,537.5,1284.877,535.842,1281.939,535.842Zm.172,7.33a3.188,3.188,0,0,1-2.023-.657,2.355,2.355,0,0,1-.807-1.9c0-1.722,1.448-2.082,2.658-2.082,1.808,0,3.417.931,3.417,1.663A3,3,0,0,1,1282.111,543.172Z" transform="translate(217.561 178.976)" fill="#fff" opacity="0.53"/><path d="M268.6,573.639c-4.558.893-9.88,3.374-9.88,7.421a7.043,7.043,0,0,0,.866,3.164,1.349,1.349,0,0,1-.592,1.808,1.365,1.365,0,0,1-.608.145,1.344,1.344,0,0,1-1.2-.737,9.73,9.73,0,0,1-1.157-4.38c0-5.677,6.226-8.917,12.054-10.058a1.344,1.344,0,0,1,.517,2.637Z" transform="translate(827.927 157.964)" fill="#462352" opacity="0.53"/><path d="M401.814,507.6a5.65,5.65,0,0,0-3.1-.947c-2.056,0-4.456,1.313-4.456,5.02,0,1.921,1.663,3.261,4.047,3.261a5.886,5.886,0,0,0,3.374-1.044,4.214,4.214,0,0,0,1.8-3.493A3.457,3.457,0,0,0,401.814,507.6Zm-1.706,4.111a3.2,3.2,0,0,1-1.8.533c-.651,0-1.356-.22-1.356-.57,0-1.566.581-2.33,1.765-2.33s2.077.748,2.077,1.055A1.54,1.54,0,0,1,400.109,511.713Z" transform="translate(745.259 196.432)" fill="#fff" opacity="0.53"/><path d="M455.174,474.607a1.347,1.347,0,0,1-1.254,1.432c-7.986.533-27.246,6.016-31.233,8.9a1.326,1.326,0,0,1-.786.253,1.341,1.341,0,0,1-.785-2.432c4.757-3.439,24.609-8.869,32.627-9.4A1.344,1.344,0,0,1,455.174,474.607Z" transform="translate(729.53 216.35)" fill="#fff" opacity="0.53"/><path d="M543.559,472.408a1.342,1.342,0,0,1-1.34,1.232c-.038,0-.075-.006-.118-.006-3.17-.28-6.915-.56-10.628-.56a58.549,58.549,0,0,0-7.647.463,1.345,1.345,0,1,1-.344-2.669,61.8,61.8,0,0,1,7.991-.484c3.815,0,7.631.285,10.865.57A1.343,1.343,0,0,1,543.559,472.408Z" transform="translate(668.677 218.124)" fill="#fff" opacity="0.53"/><path d="M611.011,351.555a47.913,47.913,0,0,0-3.229,17.1,1.345,1.345,0,0,1-2.691,0,50.485,50.485,0,0,1,3.412-18.065,1.344,1.344,0,1,1,2.508.968Z" transform="translate(619.166 290.287)" fill="#fff" opacity="0.53"/><path d="M623.184,330.612a2.021,2.021,0,0,1-.328,1.055l-.038.059a1.359,1.359,0,0,1-1.814.581,1.336,1.336,0,0,1-.592-1.787,1.912,1.912,0,0,1,.119-.21,1.343,1.343,0,0,1,2.653.3Z" transform="translate(610.087 302.523)" fill="#462352" opacity="0.53"/><path d="M788.132,320.535c0,.124-.005.248-.005.377a1.352,1.352,0,0,1-1.346,1.3h-.043a1.347,1.347,0,0,1-1.3-1.388c0-.1.006-.194.006-.291,0-6.84-7.884-8.707-15.6-9.633a1.344,1.344,0,0,1,.323-2.669C775.545,308.879,788.132,310.386,788.132,320.535Z" transform="translate(521.338 315.108)" fill="#fff" opacity="0.53"/><path d="M941.038,485.347a1.342,1.342,0,0,1-1.329,1.152,1.162,1.162,0,0,1-.194-.016,51.539,51.539,0,0,0-7.539-.527c-1.862,0-3.837.091-5.871.269a1.345,1.345,0,0,1-.237-2.68c2.109-.188,4.165-.28,6.108-.28a54.585,54.585,0,0,1,7.927.56A1.342,1.342,0,0,1,941.038,485.347Z" transform="translate(428.052 210.421)" fill="#fff" opacity="0.53"/><path d="M998.856,514.033a1.339,1.339,0,0,1-.248.027,1.356,1.356,0,0,1-1.323-1.1c-1.986-10.725-10.343-19.5-20.331-21.321a1.346,1.346,0,0,1,.484-2.647c11.236,2.055,20.277,11.489,22.494,23.479A1.341,1.341,0,0,1,998.856,514.033Z" transform="translate(397.425 207.011)" fill="#fff" opacity="0.53"/><path d="M1046.523,683.684c-6.635,2.75-11.78,7.157-14.487,12.42a1.347,1.347,0,1,1-2.395-1.232c3-5.828,8.632-10.682,15.848-13.674a1.346,1.346,0,0,1,1.033,2.486Z" transform="translate(365.343 92.105)" fill="#fff" opacity="0.53"/><path d="M1087.776,676.763a1.344,1.344,0,0,1-1.491,1.184,3.578,3.578,0,0,0-1.324.21c-.145.043-.3.081-.441.118a1.368,1.368,0,0,1-.328.038,1.344,1.344,0,0,1-.323-2.648c.129-.032.253-.07.382-.1a5.98,5.98,0,0,1,2.341-.291A1.351,1.351,0,0,1,1087.776,676.763Z" transform="translate(333.432 95.603)" fill="#462352" opacity="0.53"/><path d="M1304.312,704.923c-.264,2.169-.414,3.993-.549,5.6-.7,8.287-1.227,10.09-12.1,11.451-.054.005-.113.011-.167.011a1.345,1.345,0,0,1-.167-2.68c4.348-.543,7.087-1.092,8.228-2.271,1.044-1.082,1.211-3.089,1.518-6.737.14-1.63.3-3.476.565-5.7a1.345,1.345,0,0,1,2.669.328Z" transform="translate(209.449 78.755)" fill="#fff" opacity="0.53"/><path d="M1214.438,624.136a1.345,1.345,0,0,1-1.345,1.324h-.022c-16.633-.237-34.844-.355-55.675-.355a1.345,1.345,0,0,1,0-2.69c20.842,0,39.069.118,55.713.355A1.354,1.354,0,0,1,1214.438,624.136Z" transform="translate(289.652 127.2)" fill="#fff" opacity="0.53"/><path d="M1229.78,654.029a1.348,1.348,0,0,1-1.345,1.34h-.011c-6.081-.038-12.237-.221-18.194-.4-6.635-.194-13.491-.4-20.239-.4-2.443,0-4.7.027-6.91.075a1.343,1.343,0,1,1-.065-2.685c2.233-.054,4.51-.081,6.974-.081,6.786,0,13.668.2,20.32.4,5.941.172,12.081.355,18.129.393A1.346,1.346,0,0,1,1229.78,654.029Z" transform="translate(274.311 109.576)" fill="#fff" opacity="0.53"/><path d="M1256.34,684.576a1.346,1.346,0,0,1-1.334,1.356c-.689.006-1.383.011-2.072.011-6.5,0-13.114-.285-19.513-.565q-3.011-.129-6.016-.253a1.347,1.347,0,0,1,.108-2.691q3.011.121,6.027.253c7.044.307,14.325.629,21.439.554h.016A1.347,1.347,0,0,1,1256.34,684.576Z" transform="translate(247.75 91.304)" fill="#fff" opacity="0.53"/><path d="M1019.137,377.642a1.339,1.339,0,0,1-1.362,1.324h-.1c-1.324,0-7.921.576-7.921,11.92,0,.516.016,1.028.054,1.528a1.344,1.344,0,0,1-1.243,1.437.676.676,0,0,1-.1.005,1.345,1.345,0,0,1-1.34-1.248c-.038-.565-.059-1.141-.059-1.722,0-6.738,2.777-14.611,10.612-14.611h.135A1.351,1.351,0,0,1,1019.137,377.642Z" transform="translate(378.759 274.409)" fill="#fff" opacity="0.53"/><path d="M1186.12,385.586a1.388,1.388,0,0,1-.543.113,1.342,1.342,0,0,1-1.227-.8c-.409-.92-.726-1.857-1.033-2.766-1.388-4.111-2.486-7.356-10.569-7.356-.758,0-1.512.021-2.265.043-.339.011-.678.022-1.017.027a1.329,1.329,0,0,1-1.377-1.313,1.354,1.354,0,0,1,1.318-1.378c.328-.005.662-.016,1-.027.775-.021,1.561-.043,2.341-.043,10.009,0,11.662,4.881,13.12,9.186.3.888.586,1.733.942,2.54A1.345,1.345,0,0,1,1186.12,385.586Z" transform="translate(282.454 276.915)" fill="#fff" opacity="0.53"/><path d="M1218.26,431.2a1.258,1.258,0,0,1-.522.108,1.339,1.339,0,0,1-1.237-.823,49.979,49.979,0,0,1-1.921-5.812c-.156-.533-.307-1.065-.463-1.593a1.344,1.344,0,1,1,2.578-.764c.161.538.318,1.076.468,1.62a49.788,49.788,0,0,0,1.813,5.5A1.338,1.338,0,0,1,1218.26,431.2Z" transform="translate(254.958 247.449)" fill="#462352" opacity="0.53"/><path d="M1137.5,413.705a1.34,1.34,0,0,1-1.27,1.415q-4.076.218-8.158.4c-7.1.334-14.444.678-21.649,1.388a1,1,0,0,1-.135.011,1.346,1.346,0,0,1-.129-2.685c7.275-.721,14.653-1.066,21.789-1.4,2.712-.129,5.424-.253,8.137-.4A1.343,1.343,0,0,1,1137.5,413.705Z" transform="translate(320.219 252.783)" fill="#fff" opacity="0.53"/><path d="M1144.124,445.633a1.347,1.347,0,0,1-1.291,1.4c-8.083.312-17.279,1.157-25.394,1.9l-3.665.334a.872.872,0,0,1-.124.006,1.346,1.346,0,0,1-.119-2.686l3.66-.334c8.153-.748,17.387-1.6,25.54-1.91A1.339,1.339,0,0,1,1144.124,445.633Z" transform="translate(315.813 233.701)" fill="#fff" opacity="0.53"/><path d="M1112.43,477.425c-10.063,1.071-19.061,2.222-27.757,3.336-8.766,1.125-17.828,2.287-28.01,3.369a1.208,1.208,0,0,1-.14.006,1.343,1.343,0,0,1-.14-2.68c10.143-1.082,19.195-2.239,27.945-3.358,8.713-1.119,17.721-2.277,27.816-3.347a1.345,1.345,0,1,1,.285,2.674Z" transform="translate(349.982 215.518)" fill="#fff" opacity="0.53"/><path d="M1157.292,505.26c-11.032,1.173-19.755,2.293-29.861,3.589-.059.006-.113.011-.172.011a1.345,1.345,0,0,1-.167-2.68c10.117-1.3,18.856-2.422,29.915-3.595a1.345,1.345,0,0,1,.285,2.674Z" transform="translate(307.676 198.87)" fill="#fff" opacity="0.53"/><path d="M1136.777,532.814c-11.333,1.679-23.322,2.922-34.919,4.122-3.643.377-7.26.748-10.827,1.135a1.259,1.259,0,0,1-.145.006,1.347,1.347,0,0,1-.14-2.685c3.568-.382,7.189-.759,10.833-1.135,11.569-1.195,23.527-2.432,34.806-4.1a1.344,1.344,0,0,1,.393,2.658Z" transform="translate(329.429 182.386)" fill="#fff" opacity="0.53"/><path d="M727.159,580.885a1.343,1.343,0,0,1-1.878-.28,34.341,34.341,0,0,0-25.62-13.636,1.346,1.346,0,0,1,.108-2.691A37.1,37.1,0,0,1,727.439,579,1.347,1.347,0,0,1,727.159,580.885Z" transform="translate(563.379 161.97)" fill="#fff" opacity="0.53"/><path d="M783.757,626.718a1.35,1.35,0,0,1-1.781-.673,14.462,14.462,0,0,0-.812-1.474,11.263,11.263,0,0,1-1.421-3.057,1.348,1.348,0,0,1,2.615-.657,8.718,8.718,0,0,0,1.109,2.325,16.877,16.877,0,0,1,.963,1.754A1.349,1.349,0,0,1,783.757,626.718Z" transform="translate(514.736 128.74)" fill="#462352" opacity="0.53"/><path d="M765.863,803.741c-.877,1.178-1.727,2.454-2.551,3.686-2.922,4.38-5.946,8.917-11.188,11.145a1.3,1.3,0,0,1-.527.107,1.345,1.345,0,0,1-.527-2.583c4.5-1.916,7.173-5.92,10-10.16.839-1.265,1.711-2.567,2.626-3.8a1.347,1.347,0,0,1,2.164,1.6Z" transform="translate(532.349 20.038)" fill="#fff" opacity="0.53"/><path d="M607.94,620.867a1.348,1.348,0,0,1-1.345,1.34h-.005c-20.422-.118-42.539-.759-69.613-2.018a1.347,1.347,0,0,1,.129-2.69c27.03,1.259,49.115,1.9,69.495,2.018A1.342,1.342,0,0,1,607.94,620.867Z" transform="translate(660.67 130.14)" fill="#fff" opacity="0.53"/><path d="M585.237,662.366a1.326,1.326,0,0,1-1.377,1.313c-7.152-.161-14.691-.242-22.4-.242-9.627,0-19.792.124-31.077.377h-.033a1.345,1.345,0,0,1-.032-2.691c11.306-.253,21.493-.377,31.142-.377,7.733,0,15.288.081,22.467.242A1.346,1.346,0,0,1,585.237,662.366Z" transform="translate(664.672 104.275)" fill="#fff" opacity="0.53"/><path d="M570.116,709.427a1.347,1.347,0,0,1-1.345,1.281h-.065c-5.575-.28-11.258-.4-16.746-.511-7.879-.167-16.026-.339-24.06-.974a1.344,1.344,0,0,1,.215-2.68c7.954.63,16.058.8,23.9.963,5.511.113,11.209.237,16.822.511A1.347,1.347,0,0,1,570.116,709.427Z" transform="translate(666.071 76.887)" fill="#fff" opacity="0.53"/><path d="M575.4,750.212a1.342,1.342,0,0,1-1.345,1.33h-.016c-4.338-.043-8.675-.011-13.012.021-2.869.022-5.742.049-8.61.049-5.134,0-11.914-.065-18.808-.549a1.343,1.343,0,0,1,.183-2.68c6.818.473,13.534.538,18.625.538,2.863,0,5.725-.027,8.588-.048,4.353-.033,8.707-.065,13.066-.022A1.349,1.349,0,0,1,575.4,750.212Z" transform="translate(662.667 51.864)" fill="#fff" opacity="0.53"/><path d="M574.983,790.877a1.329,1.329,0,0,1-1.372,1.319c-.834-.016-1.668-.027-2.508-.027-4.2,0-8.508.21-12.673.42-4.208.2-8.556.42-12.84.42-3.428,0-6.49-.134-9.347-.414a1.346,1.346,0,0,1,.258-2.68c2.777.274,5.747.4,9.089.4,4.219,0,8.535-.21,12.705-.42,5.037-.248,10.252-.506,15.369-.393A1.342,1.342,0,0,1,574.983,790.877Z" transform="translate(661.069 27.284)" fill="#fff" opacity="0.53"/><path d="M896.415,562.941c-6.161,0-18.738-.006-21.127.893-.441,2.454.129,15.235,1.636,29.92,1.867,18.232,3.988,27.945,5.231,29.527h.183c4.041.005,4.364-.172,4.666-1.372A527.986,527.986,0,0,0,897.976,564.8a1.662,1.662,0,0,0-.387-1.329A1.534,1.534,0,0,0,896.415,562.941Z" transform="translate(457.656 162.769)" fill="#f1a7c5" opacity="0.53"/><path d="M891.3,756.288a3.2,3.2,0,0,0-3.256,3.207c0,2.4,1.969,4.262,3.665,4.262a1.706,1.706,0,0,0,1.431-.732,5.572,5.572,0,0,0,.818-3.4,3.693,3.693,0,0,0-.85-2.626A2.476,2.476,0,0,0,891.3,756.288Z" transform="translate(449.937 47.134)" fill="#f1a7c5" opacity="0.53"/><path d="M1179.625,378.779h-.039a17.759,17.759,0,0,1,8.532,2.886C1186.717,379.9,1184.381,378.779,1179.625,378.779Z" transform="translate(275.577 272.911)" fill="#c0b6fd" opacity="0.53"/><g transform="translate(396.577 592.461)"><g transform="translate(808.853 190.729)"><path d="M471.879,247.6a28.377,28.377,0,0,1-2.7,1.078,63.032,63.032,0,0,0,1.252,11.02c.7,3.739,1.432,6.642,1.432,6.642s.011.273.022.628c8.206.6,13.449-7.709,8.6-13.932a21.965,21.965,0,0,1-4.07-9.244A11.458,11.458,0,0,1,471.879,247.6Z" transform="translate(-414.612 -194.906)" fill="#f7e391"/><path d="M443.719,257.939c-.452-5.291-.717-10.8-.873-15.189-.049-1.366-.085-2.609-.114-3.714a12.586,12.586,0,0,1-.852-1.63s-11.857,8.179-13.024-1.866,5.261-12.043,5.261-12.043,4.083,8.112,7.034,7.448,5.066-9.654,5.066-9.654a14.088,14.088,0,0,0,8.7-2.561l-1.092-1.375a5.658,5.658,0,0,1,4.1-1.415,20.537,20.537,0,0,0,3.674-6.774c6.588,6.775,13.311,5.712,13.311,5.712s.461,2.082.79,5.145c7.262-5.988,2.908-8.867-4.643-21.195-7.894-12.889-20.573-6.194-30.293-1.368s-24.977,1.049-20.6,23.012c-20.125,14.465-2.2,23.736-1.341,25.269s-14.955,21.05,10.8,21.906c.32.359.642.681.963.991a27.322,27.322,0,0,1,13.773-7.539A14.073,14.073,0,0,1,443.719,257.939Z" transform="translate(-410.652 -191.358)" fill="#f7e391"/><path d="M533.245,418.505c.727-7.6.8-8.329,1.523-15.929-22.038-12.174-40.619-21.413-45.147-23.643-5.836,5.809-25.167,21.671-60.555,19.82a69.173,69.173,0,0,0-2.135,20.121H533.287c-.1-.094-.195-.191-.3-.283Z" transform="translate(-411.749 -204.049)" fill="#e8c367"/><g transform="translate(2.569 69.741)"><path d="M429.513,284.6c7.7,1.565,9.531,15.156,12.623,23.512s12.985,20.353,12.985,20.353,1.682-3.149,3.927-8.353a158.124,158.124,0,0,0,7.868-22.781,113.623,113.623,0,0,0,2.871-15.109,30.92,30.92,0,0,1,5.586.039c-.093-4.637-.35-8.324-2.073-10.569-1.612-.66-3.183-1.249-4.7-1.773a1.327,1.327,0,0,1-.035.33c-3.882,7.207-12.389,7.338-18.218,3.127a14.434,14.434,0,0,1-5.324-7.219,27.322,27.322,0,0,0-13.773,7.539c-4.1,4.043-8.02,10.118-10.776,19.229C422.785,287.3,426.255,283.941,429.513,284.6Z" transform="translate(-413.886 -266.16)" fill="#f9e0d2"/><path d="M479.987,358.415a49.156,49.156,0,0,1-5.963-15.7,69.239,69.239,0,0,1-9.1,13.351,27.153,27.153,0,0,1-4.095,3.714c-15,10.774-32.211-12.471-40.3-32.834a45.252,45.252,0,0,1-3.045-20.371c-6.6,35.834-6.005,73.736,7.873,87.12.948.074,1.869.116,2.8.164,35.389,1.852,54.72-14.01,60.556-19.82,1.288-1.283,1.933-2.085,1.933-2.085A60.128,60.128,0,0,1,479.987,358.415Z" transform="translate(-413.408 -268.894)" fill="#f9e0d2"/><path d="M488.181,333.268c.819-2.156.655-5.128-.356-8.951-1.063,2.58-2.162,5.149-3.293,7.672q-1.235,2.751-2.519,5.407C485.312,336.933,487.309,335.567,488.181,333.268Z" transform="translate(-418.05 -270.095)" fill="#f9e0d2"/></g><path d="M468.8,259.608a63.044,63.044,0,0,1-1.252-11.02c-10.163,3.519-18.89-.174-22.486-6.092.029,1.106.065,2.349.114,3.714C448.477,250.743,456.67,259.871,468.8,259.608Z" transform="translate(-412.98 -194.818)" fill="#c46767"/><g transform="translate(18.063 17.808)"><path d="M470.24,266.52s-.732-2.9-1.432-6.642c-12.129.263-20.322-8.865-23.625-13.4.156,4.384.421,9.9.873,15.189a14.082,14.082,0,0,0,.642,3.16,14.435,14.435,0,0,0,5.324,7.219c5.829,4.211,14.336,4.08,18.218-3.127a1.322,1.322,0,0,0,.035-.33c.014-.374,0-.975-.013-1.442C470.251,266.793,470.24,266.52,470.24,266.52Z" transform="translate(-431.052 -212.895)" fill="#f57f7f"/><path d="M477.008,221.314c-.329-3.063-.79-5.145-.79-5.145s-6.723,1.064-13.311-5.711a20.54,20.54,0,0,1-3.674,6.774c.08.007.16-.006.241.007A5.039,5.039,0,0,1,462.7,219.2l-2.255,1.611a2.289,2.289,0,0,0-1.389-.83,3.036,3.036,0,0,0-2.2.839l-.63-.793a14.088,14.088,0,0,1-8.7,2.561s-2.116,8.991-5.066,9.654-7.034-7.448-7.034-7.448-6.427,2-5.261,12.043,13.024,1.866,13.024,1.866a12.58,12.58,0,0,0,.852,1.63c3.6,5.918,12.323,9.611,22.486,6.092a28.388,28.388,0,0,0,2.7-1.078,11.461,11.461,0,0,0,4.537-3.808C477.77,235.938,477.614,226.953,477.008,221.314ZM458.58,222.62c1.211-.031,2.227,1.3,2.269,2.983s-.905,3.064-2.116,3.094-2.227-1.305-2.269-2.983S457.369,222.65,458.58,222.62Zm-1.257,13.424c1.353,2.566,6.041,3.613,6.041,3.613C460.477,241.708,457.541,243.792,457.323,236.044Zm12.239-.381a3.33,3.33,0,0,1-.586.493,3.937,3.937,0,0,1-4.928-.645l1.255-1.359c1.158,1.069,2.34.856,2.914.246a.826.826,0,0,0,.028-1.252c-2.043-1.965-3.293-5.824-3.344-5.987l1.757-.562c.014.035,1.16,3.574,2.87,5.22A2.65,2.65,0,0,1,469.562,235.663Zm2.729-9.551a3.169,3.169,0,0,1-.369.715,1.921,1.921,0,0,1-1.495.888c-1.21.031-2.226-1.3-2.268-2.983s.9-3.064,2.115-3.094,2.226,1.305,2.268,2.984A3.929,3.929,0,0,1,472.291,226.112Zm.508-5.67c-.118-.225-1.262-2.14-4.652-.85L467.16,217c4.691-1.786,7.361.655,8.117,2.2Z" transform="translate(-430.026 -210.458)" fill="#f57f7f"/></g><path d="M467.369,228.329c.051.163,1.3,4.022,3.344,5.988a.826.826,0,0,1-.028,1.252c-.573.61-1.756.823-2.915-.245l-1.254,1.358a3.937,3.937,0,0,0,4.927.645,3.334,3.334,0,0,0,.586-.493,2.65,2.65,0,0,0-.035-3.847c-1.71-1.646-2.856-5.186-2.87-5.22Z" transform="translate(-414.432 -193.821)" fill="#d66363"/><path d="M460.652,229.58c1.21-.031,2.157-1.416,2.115-3.094s-1.058-3.013-2.269-2.983-2.158,1.415-2.116,3.093S459.441,229.611,460.652,229.58Z" transform="translate(-413.881 -193.533)" fill="#363a63"/><path d="M474.962,227.963a3.178,3.178,0,0,0,.369-.715C475.194,227.489,475.069,227.727,474.962,227.963Z" transform="translate(-415.003 -193.786)" fill="#363a63"/><path d="M475.31,225.433c-.042-1.678-1.058-3.013-2.268-2.984s-2.158,1.416-2.116,3.094,1.058,3.013,2.268,2.983a1.922,1.922,0,0,0,1.495-.888c.107-.236.232-.475.369-.715A3.928,3.928,0,0,0,475.31,225.433Z" transform="translate(-414.73 -193.462)" fill="#363a63"/><path d="M461.056,217.722a5.658,5.658,0,0,0-4.1,1.415l1.092,1.375A15.478,15.478,0,0,0,461.056,217.722Z" transform="translate(-413.785 -193.14)" fill="#363a63"/><path d="M460.958,220.469a2.289,2.289,0,0,1,1.389.83l2.255-1.611a5.039,5.039,0,0,0-3.227-1.957c-.08-.012-.16,0-.24-.007a15.471,15.471,0,0,1-3,2.79l.63.793A3.036,3.036,0,0,1,460.958,220.469Z" transform="translate(-413.865 -193.142)" fill="#363a63"/><path d="M469.854,217.434l.987,2.587c3.39-1.289,4.534.626,4.652.85l2.478-1.242C477.216,218.09,474.547,215.648,469.854,217.434Z" transform="translate(-414.658 -193.08)" fill="#363a63"/><path d="M459.3,237.9c.218,7.748,3.154,5.664,6.041,3.614C465.345,241.515,460.657,240.467,459.3,237.9Z" transform="translate(-413.944 -194.507)" fill="#fff"/><path d="M556.391,242.692H525.315a4.186,4.186,0,0,0-4.062,3.174l-11.43,45.868a3.327,3.327,0,0,0,3.109,4.129l14.425.517a6.649,6.649,0,0,0-.707-4.228c-2.869-4.781-5.3-6.694-2.782-9.65s11.127,3.564,13.387,12.431a15.829,15.829,0,0,1,.345,1.814l4.3.155a4.186,4.186,0,0,0,4.172-3.025l13.518-46.939A3.327,3.327,0,0,0,556.391,242.692Z" transform="translate(-417.355 -194.831)" fill="#363a63"/><path d="M538.55,299.585a15.851,15.851,0,0,0-.345-1.814c-2.26-8.867-10.865-15.385-13.386-12.431s-.087,4.869,2.782,9.65a6.65,6.65,0,0,1,.707,4.228,21.535,21.535,0,0,1-2.644,7.35,86.771,86.771,0,0,1,10.689,4.162A18.8,18.8,0,0,0,538.55,299.585Z" transform="translate(-418.305 -197.668)" fill="#f57f7f"/><path d="M533.285,312.194a86.778,86.778,0,0,0-10.689-4.162c-1.757-.572-3.677-1.158-5.8-1.756a76.407,76.407,0,0,1-25.382,24.861,6.718,6.718,0,0,1-3.476.91c-.873,2.3-2.87,3.665-6.168,4.128-1.091,2.25-2.206,4.435-3.347,6.517a49.152,49.152,0,0,0,5.963,15.7c10.39-1.186,19.892-6.4,19.892-6.4,16.093-4.586,35.292-35.813,35.292-35.813S538.29,314.6,533.285,312.194Z" transform="translate(-415.238 -199.133)" fill="#e0c2b3"/><path d="M493.083,272.41c9.274-.687,5.4-11.725,5.4-11.725s11.186,4.144,12.271,2.02-9.332-10.4-18.678-8.55c-7.711,1.522-10.144,20.779-10.759,27.471a85,85,0,0,1,11.811,2.474C492.443,281.168,491.729,276.374,493.083,272.41Z" transform="translate(-415.433 -195.589)" fill="#f57f7f"/><path d="M420.295,294.87a37.164,37.164,0,0,0-2.511,10.911q.336-1.822.694-3.637C419,299.518,419.616,297.112,420.295,294.87Z" transform="translate(-411.135 -198.362)" fill="#e0c2b3"/><path d="M488.818,286.088a84.992,84.992,0,0,0-11.811-2.474q-.92-.113-1.827-.191a30.916,30.916,0,0,0-5.586-.039,113.645,113.645,0,0,1-2.872,15.109,158.118,158.118,0,0,1-7.868,22.781c-2.245,5.2-3.927,8.353-3.927,8.353s-9.894-12-12.985-20.353-4.926-21.946-12.623-23.512c-3.259-.662-6.728,2.7-9.036,8.325-.679,2.242-1.294,4.648-1.816,7.274q-.359,1.814-.695,3.637a45.255,45.255,0,0,0,3.045,20.371c8.089,20.363,25.3,43.608,40.3,32.834a27.149,27.149,0,0,0,4.095-3.714,69.239,69.239,0,0,0,9.1-13.351c1.141-2.082,2.256-4.267,3.347-6.517q1.284-2.652,2.519-5.407c1.131-2.523,2.23-5.092,3.293-7.672,5.131-12.448,9.436-25.067,12.58-33.188C496.049,288.352,493.043,287.26,488.818,286.088Zm-36.093,50.594c-1.04,1.386-2.049,2.57-2.88,3.479-1.144,1.25-1.95,1.993-2.035,2.071l-2.472-2.709c.007-.008.142-.132.355-.341a40.959,40.959,0,0,0,2.772-3.027,36.259,36.259,0,0,0,4.808-7.321l3.307,1.586A37.738,37.738,0,0,1,452.725,336.682Z" transform="translate(-411.124 -197.577)" fill="#e0c2b3"/><path d="M458.819,333.725l-3.307-1.586a36.226,36.226,0,0,1-4.808,7.321,20.228,20.228,0,0,0,4.26.529A37.745,37.745,0,0,0,458.819,333.725Z" transform="translate(-413.362 -200.883)" fill="#c6a597"/><path d="M447.35,343.579l2.472,2.709c.085-.077.891-.82,2.035-2.071a23.252,23.252,0,0,1-4.152-.98C447.492,343.447,447.357,343.572,447.35,343.579Z" transform="translate(-413.135 -201.634)" fill="#c6a597"/><path d="M450.5,339.991a40.984,40.984,0,0,1-2.772,3.027,23.265,23.265,0,0,0,4.152.98c.831-.908,1.841-2.092,2.88-3.479A20.235,20.235,0,0,1,450.5,339.991Z" transform="translate(-413.161 -201.414)" fill="#c6a597"/></g><g transform="translate(620.446 182.057)"><path d="M393.176,322.8c.076.089.129.189.2.282,10.564-5.7,2.6-13.9,2.6-13.9s5.917-9.3,4.649-10.143c-1-.664-10.593,10.42-14.666,15.206a5.274,5.274,0,0,1,.409.4Z" transform="translate(-220.574 -189.97)" fill="#f57f7f"/><path d="M237.61,316.808a53.475,53.475,0,0,1,5.658,4.224,108.44,108.44,0,0,1,5.629-30.175,86.238,86.238,0,0,0-20.307,3.055,14.616,14.616,0,0,0-2.72.968c.3-.1.595-.189.9-.262C215.2,299.622,226.024,309.324,237.61,316.808Z" transform="translate(-209.469 -189.418)" fill="#aa3949"/><path d="M344.509,336.52c1.659-.9,3.226-1.787,4.742-2.668a43.181,43.181,0,0,0-22.5-26.933C332.486,320.606,339.207,333.927,344.509,336.52Z" transform="translate(-216.569 -190.505)" fill="#aa3949"/><path d="M326.584,306.508c-.792-1.889-1.563-3.781-2.31-5.656a40.634,40.634,0,0,1,.316,4.748C325.269,305.88,325.926,306.193,326.584,306.508Z" transform="translate(-216.401 -190.095)" fill="#21243d"/><path d="M392.335,324.65c.319-.152.615-.308.906-.464-.068-.093-.122-.193-.2-.282l-6.814-8.162a5.292,5.292,0,0,0-.409-.4c-1.112,1.308-1.816,2.149-1.816,2.149A12.933,12.933,0,0,0,392.335,324.65Z" transform="translate(-220.443 -191.075)" fill="#21243d"/><path d="M388.58,323.549c-.291.157-.587.312-.906.464a12.933,12.933,0,0,1-8.33-7.156s.7-.841,1.816-2.149a5.108,5.108,0,0,0-7.2.1c-4.155,4.24-12.114,11.2-25.5,18.974-1.516.881-3.083,1.77-4.742,2.668-5.3-2.593-12.023-15.914-17.757-29.6-.657-.314-1.316-.627-1.994-.907a30.289,30.289,0,0,1-5.642,18.216,13.1,13.1,0,0,0-1.684,3.743c-1.75,5.872-1.777,15.2-1.2,24.16.39.224.792.445,1.2.665a66.993,66.993,0,0,0,16.064,5.951,35.9,35.9,0,0,0,18.592-.571c17.6-5.063,31.719-21.324,37.2-28.407A5.12,5.12,0,0,0,388.58,323.549Z" transform="translate(-215.781 -190.439)" fill="#21243d"/><g transform="translate(99.663 161.625)"><path d="M344.986,381.644a18.765,18.765,0,0,0,4.628,1.915,142.916,142.916,0,0,0,1.711-22.1,35.894,35.894,0,0,1-18.592.571,66.994,66.994,0,0,1-16.064-5.951c-.409-.22-.811-.441-1.2-.665.177,2.755.411,5.467.669,8.039l.531.289c14.152,7.729,28.623,13.918,28.623,13.918S345.253,379.357,344.986,381.644Z" transform="translate(-315.468 -355.411)" fill="#aa3949"/><path d="M361.669,399.556h-13.5c-.043.153-.07.247-.07.247l-.536-.247h-2.775v-3.2h12.9c-1-.716-2.032-1.4-3.083-2.053a10.154,10.154,0,0,1-5.346.823,15.713,15.713,0,0,1-5.326-1.9,6.306,6.306,0,0,1-2.561,2.8c-.676-.076-1.33-.169-1.994-.254q-2.056-.26-4.042-.567L367.5,418.654C370.7,411.167,367.336,404.738,361.669,399.556Z" transform="translate(-316.813 -357.97)" fill="#aa3949"/></g><path d="M348.99,400.262s.027-.094.07-.247h-.606Z" transform="translate(-218.037 -196.804)" fill="#aa3949"/><path d="M361.38,409.182l-32.161-23.441q-1.853-.287-3.647-.612a119.565,119.565,0,0,1-31.018-9.878q-.948-.46-1.863-.928c-1.192-.61-2.335-1.228-3.445-1.851-13.622-7.661-21.055-16.186-23.659-20.276-3.328-5.227-8.318-42.22-6.1-63.842.923-9,3.093-15.338,7.155-15.613,4.94-.335,8.458,7.435,11.136,17.8,4.814,18.63,6.9,45.642,9.619,49,3.316,4.108,9.86,8.742,17.253,13.158,2.183,1.3,4.438,2.588,6.707,3.835-.258-2.571-.492-5.284-.669-8.039-.576-8.957-.549-18.288,1.2-24.16a13.106,13.106,0,0,1,1.684-3.743,30.289,30.289,0,0,0,5.642-18.216,40.631,40.631,0,0,0-.316-4.748c-1.055-8.552-4.847-19.272-12.937-33.149-17.742,4.327-28.418-11.251-28.418-11.251s-17.633,8.05-27.089,35.082a108.439,108.439,0,0,0-5.629,30.175,54.159,54.159,0,0,1,18.953,38.357c.265,4.969.257,9.776.084,14.271-.034.876-.073,1.742-.118,2.594-.011.207-.024.409-.036.614a176.686,176.686,0,0,1-2.416,20.708,15.25,15.25,0,0,1,12.466,7.614,24.131,24.131,0,0,1,2.956,7.723h86.3Z" transform="translate(-211.026 -186.873)" fill="#363a63"/><path d="M288.24,213.909c1.741,1.537,3.858,2.814,6.09,2.755a2.643,2.643,0,0,0,1.017-.229C292.732,214.7,290.169,213.558,288.24,213.909Z" transform="translate(-213.963 -184.208)" fill="#363a63"/><g transform="translate(63.28 17.599)"><path d="M308.277,225.385a6.257,6.257,0,0,1,4.368-4.339,2.278,2.278,0,0,1,2.247-1.441,2.1,2.1,0,0,1,1.563,1.6,6.263,6.263,0,0,1,3.813,4l1.769-.216c0,.007.024.169.06.39a3.421,3.421,0,0,1,1.141.486,6.238,6.238,0,0,1,.568-1.587,4.1,4.1,0,0,1,.043-.828c.269-1.646,1.451-2.821,2.638-2.626a1.666,1.666,0,0,1,.8.37,6.232,6.232,0,0,1,2.116-.392,6.3,6.3,0,0,1,1.267.128q-.178-2.1-.529-4.177l-.549.588c-.188-.166-1.917-1.556-4.628.819l-1.812-2.071c2.528-2.214,4.862-2.321,6.5-1.8a36.751,36.751,0,0,0-3.745-9.863c-3.575,5.947-27.532-3.493-27.532-3.493s1.509,11.018-1.639,14.075A73.218,73.218,0,0,1,308.277,225.385Zm7.8-11.938a5.015,5.015,0,0,1,2.784,2.51l-2.508,1.136a2.287,2.287,0,0,0-1.17-1.042,2.965,2.965,0,0,0-2.32.4l-1.279-2.436A5.58,5.58,0,0,1,316.075,213.447Z" transform="translate(-277.817 -200.933)" fill="#f57f7f"/><path d="M321.742,227.788c0-.094.023-.181.028-.274a.447.447,0,0,1-.269-.082,2.775,2.775,0,0,0-.591-.35,12.3,12.3,0,0,0,1.585,4.236,2.634,2.634,0,0,1-.682,3.762,3.477,3.477,0,0,1-2.033.643,4.119,4.119,0,0,1-3.315-1.818l1.476-1.09c.926,1.249,2.1,1.278,2.8.779a.823.823,0,0,0,.26-1.216,13.42,13.42,0,0,1-1.793-4.5,6.282,6.282,0,1,1-12.468-1.021.461.461,0,0,1-.218.023.455.455,0,0,1-.268-.147c-.09-.1-6.011-6.685-11.7-10.466a2.641,2.641,0,0,1-1.017.229c-2.232.059-4.349-1.219-6.09-2.755a3.358,3.358,0,0,0-.4.087.455.455,0,0,1-.574-.3.439.439,0,0,1,.21-.5c-.26-.255-.51-.513-.747-.769,0,.02.011.1.011.1s-7.266-3.217-8.852,1.976c-2.583,8.453,3.029,13.993,9.809,13.272.145,8.8-7.213,22.792-7.213,22.792s10.675,15.578,28.418,11.251c-.5-8.672-.671-12.865-.711-13.88.034.923.134,4.341-.009,8.927-10.867-4.52-15.483-13.176-19.907-25.966,6.635,10.578,19.907,16.781,19.907,16.781s19.186,6.924,21.061-6.924c.293-2.16.556-4.378.749-6.632a6.246,6.246,0,0,1-7.448-6.168Zm-12.02,9.522a12.64,12.64,0,0,0,7.4,2.61S311.517,243.007,309.722,237.31Z" transform="translate(-276.445 -201.639)" fill="#f57f7f"/></g><path d="M319.575,196.338c-8.345-8.762-18.5-8.245-25.01-4.832a8.392,8.392,0,0,0,.055-.938,8.543,8.543,0,1,0-6.963,8.364,23.846,23.846,0,0,0-1.651,11.346c.237.256.487.514.747.769.034-.022.05-.063.091-.076,2.322-.721,5.47.659,8.589,2.76,3.148-3.056,1.639-14.075,1.639-14.075s23.957,9.44,27.532,3.493A33.976,33.976,0,0,0,319.575,196.338Z" transform="translate(-213.243 -182.057)" fill="#363a63"/><path d="M309.625,250.134s0,.09.009.257C309.629,250.229,309.625,250.134,309.625,250.134Z" transform="translate(-215.41 -186.663)" fill="#d66363"/><path d="M288.273,232.135c4.424,12.79,9.04,21.446,19.907,25.966.143-4.586.043-8,.009-8.927-.007-.167-.009-.257-.009-.257S294.908,242.713,288.273,232.135Z" transform="translate(-213.965 -185.445)" fill="#d66363"/><path d="M323.155,227.076a2.033,2.033,0,0,1,.649.043c-.036-.221-.058-.382-.06-.39l-1.769.216a6.127,6.127,0,0,1,.2.665A1.707,1.707,0,0,1,323.155,227.076Z" transform="translate(-216.246 -185.079)" fill="#d66363"/><path d="M322.49,228.475a.456.456,0,0,1-.373.191c-.009,0-.017-.007-.025-.007,0,.088.025.17.025.258,0,.032-.008.061-.008.091a13.421,13.421,0,0,0,1.793,4.5.823.823,0,0,1-.26,1.216c-.7.5-1.872.47-2.8-.779l-1.476,1.09a4.119,4.119,0,0,0,3.315,1.818,3.477,3.477,0,0,0,2.034-.643,2.634,2.634,0,0,0,.682-3.762,12.3,12.3,0,0,1-1.585-4.236,1.339,1.339,0,0,0-.721-.136A.869.869,0,0,0,322.49,228.475Z" transform="translate(-216.069 -185.17)" fill="#d66363"/><path d="M317.609,222.553a2.1,2.1,0,0,0-1.563-1.6A2.278,2.278,0,0,0,313.8,222.4a5.814,5.814,0,0,1,3.81.154Z" transform="translate(-215.692 -184.688)" fill="#363a63"/><path d="M329.247,222.63a1.667,1.667,0,0,0-.8-.37c-1.188-.195-2.369.981-2.639,2.626a4.1,4.1,0,0,0-.043.828A6.266,6.266,0,0,1,329.247,222.63Z" transform="translate(-216.502 -184.776)" fill="#363a63"/><path d="M317.153,214.337a5.581,5.581,0,0,0-4.493.57l1.279,2.436a2.965,2.965,0,0,1,2.32-.4,2.291,2.291,0,0,1,1.17,1.042l2.508-1.136A5.015,5.015,0,0,0,317.153,214.337Z" transform="translate(-215.615 -184.224)" fill="#363a63"/><path d="M331.561,215.239c-1.633-.525-3.968-.419-6.5,1.8l1.812,2.071c2.711-2.376,4.44-.985,4.628-.82l.549-.588,1.328-1.423A4.822,4.822,0,0,0,331.561,215.239Z" transform="translate(-216.455 -184.284)" fill="#363a63"/><path d="M319.539,241.8a12.64,12.64,0,0,1-7.4-2.61C313.932,244.89,319.539,241.8,319.539,241.8Z" transform="translate(-215.58 -185.923)" fill="#fff"/><path d="M322.041,227.748c.039-.047.085-.08.127-.122a6.157,6.157,0,0,0-.2-.665l-.051.007C321.927,227.01,321.963,227.3,322.041,227.748Z" transform="translate(-216.242 -185.095)" fill="#fff"/><path d="M322.285,228.7a.514.514,0,0,1-.065-.021c.025.12.052.242.082.371,0-.031.008-.06.008-.091C322.31,228.87,322.288,228.788,322.285,228.7Z" transform="translate(-216.262 -185.211)" fill="#fff"/><g transform="translate(93.478 37.462)"><path d="M332.581,222.366a6.3,6.3,0,0,0-1.267-.128,6.411,6.411,0,0,0-6.162,5.063c.117.078.2.14.222.16a.459.459,0,0,1,.059.645.435.435,0,0,1-.376.143c0,.093-.028.18-.028.274a6.285,6.285,0,1,0,7.552-6.157Z" transform="translate(-309.931 -222.238)" fill="#363a63"/><path d="M321.138,228.186a.457.457,0,0,1-.106-.639c.035-.049.086-.073.124-.118-.078-.446-.115-.737-.12-.78l.051-.007a6.257,6.257,0,0,0-11.991.185l.028.032a.449.449,0,0,1-.2.736,6.27,6.27,0,1,0,12.468,1.021c-.03-.129-.057-.251-.082-.371A.413.413,0,0,1,321.138,228.186Z" transform="translate(-308.835 -222.238)" fill="#363a63"/></g><path d="M323.937,227.147c.039.246.1.58.186,1a2.784,2.784,0,0,1,.591.35.445.445,0,0,0,.268.082,6.351,6.351,0,0,1,.1-.948A3.42,3.42,0,0,0,323.937,227.147Z" transform="translate(-216.378 -185.108)" fill="#fff"/><path d="M323.17,227.1a1.706,1.706,0,0,0-.984.534,6.492,6.492,0,0,1,.1.958c.008,0,.016.008.025.008a.456.456,0,0,0,.373-.191.868.868,0,0,1,.6-.4,1.34,1.34,0,0,1,.721.136c-.089-.422-.147-.756-.186-1A2.033,2.033,0,0,0,323.17,227.1Z" transform="translate(-216.26 -185.104)" fill="#fff"/><path d="M325.435,228.474a.459.459,0,0,0-.059-.645c-.025-.021-.1-.082-.222-.16a6.342,6.342,0,0,0-.1.948A.435.435,0,0,0,325.435,228.474Z" transform="translate(-216.454 -185.143)" fill="#fff"/><path d="M321.911,227.923a.457.457,0,0,0,.106.64.413.413,0,0,0,.176.057c-.065-.3-.119-.582-.159-.815C322,227.851,321.946,227.874,321.911,227.923Z" transform="translate(-216.235 -185.152)" fill="#fff"/><path d="M322.208,228.611a.547.547,0,0,0,.065.021,6.444,6.444,0,0,0-.1-.958c-.042.042-.088.076-.127.122C322.09,228.029,322.143,228.306,322.208,228.611Z" transform="translate(-216.251 -185.143)" fill="#fff"/><path d="M296.1,215.815c-3.119-2.1-6.267-3.48-8.589-2.76-.041.012-.057.053-.091.075.245.241.5.479.767.712,1.929-.352,4.492.788,7.107,2.526A2.768,2.768,0,0,0,296.1,215.815Z" transform="translate(-213.907 -184.141)" fill="#fff"/><path d="M287.4,213.15a.438.438,0,0,0-.21.5.455.455,0,0,0,.573.3,3.373,3.373,0,0,1,.4-.087C287.9,213.629,287.646,213.391,287.4,213.15Z" transform="translate(-213.891 -184.161)" fill="#fff"/><path d="M296.668,216.029a2.766,2.766,0,0,1-.805.554c5.69,3.782,11.61,10.367,11.7,10.466a.455.455,0,0,0,.268.147.46.46,0,0,0,.218-.023,6.33,6.33,0,0,1,.168-.767A73.209,73.209,0,0,0,296.668,216.029Z" transform="translate(-214.479 -184.356)" fill="#fff"/><path d="M309.131,227.191l-.028-.032a6.283,6.283,0,0,0-.168.767.453.453,0,0,0,.16-.089A.458.458,0,0,0,309.131,227.191Z" transform="translate(-215.363 -185.109)" fill="#fff"/><path d="M271.3,405.464a15.25,15.25,0,0,0-12.466-7.613,176.665,176.665,0,0,0,2.416-20.708c.012-.205.025-.407.036-.614q.068-1.277.118-2.594c.173-4.5.181-9.3-.084-14.271a54.159,54.159,0,0,0-18.953-38.357,53.465,53.465,0,0,0-5.658-4.224c-11.586-7.484-22.409-17.186-10.838-22.19-.307.073-.605.164-.9.262-21.593,7.157-15.654,80.56-15.654,80.56s2.86,20.065,24.413,37.474H274.26A24.132,24.132,0,0,0,271.3,405.464Z" transform="translate(-208.573 -189.691)" fill="#e25267"/><path d="M365.528,396.584c-.588.909-2.174.668-3.867,0H345.478v3.2h32.256l1.262-3.2Z" transform="translate(-217.836 -196.572)" fill="#363a63"/><path d="M447.823,350.408h-43.9a8.217,8.217,0,0,0-7.643,5.2L381.337,393.46l-1.262,3.2h56.914l14.905-40.409A4.339,4.339,0,0,0,447.823,350.408Z" transform="translate(-220.177 -193.448)" fill="#363a63"/><path d="M355.676,393.788a2.676,2.676,0,0,1,2.673.078,19.993,19.993,0,0,0,3.689,1.975h3.867a2.443,2.443,0,0,0,.143-1.84c-.94-4.442-8.183-8.651-11.8-8.221a6.6,6.6,0,0,1-2.228-.177c-.317,2.045-.648,3.9-.97,5.547C352.6,391.961,354.154,392.842,355.676,393.788Z" transform="translate(-218.213 -195.829)" fill="#f57f7f"/><path d="M346.1,388.757c1.493.679,3.047,1.43,4.614,2.253.322-1.647.653-3.5.97-5.546a18.763,18.763,0,0,1-4.628-1.915A38.022,38.022,0,0,1,346.1,388.757Z" transform="translate(-217.878 -195.69)" fill="#f57f7f"/><path d="M355.623,394.19c-1.521-.946-3.078-1.827-4.623-2.639-.252,1.288-.5,2.455-.723,3.463A10.154,10.154,0,0,0,355.623,394.19Z" transform="translate(-218.161 -196.231)" fill="#f57f7f"/><path d="M349.89,394.85c.226-1.008.471-2.175.723-3.463-1.567-.822-3.122-1.574-4.614-2.253a17.974,17.974,0,0,1-1.435,3.817A15.718,15.718,0,0,0,349.89,394.85Z" transform="translate(-217.774 -196.068)" fill="#f57f7f"/><path d="M366.7,396.584h-3.867C364.528,397.253,366.113,397.493,366.7,396.584Z" transform="translate(-219.01 -196.572)" fill="#f57f7f"/><path d="M312.913,358.24l-.531-.289c-2.269-1.246-4.525-2.53-6.707-3.835-7.393-4.417-13.937-9.05-17.253-13.158-2.715-3.363-4.805-30.375-9.619-49-2.678-10.362-6.2-18.132-11.136-17.8-4.061.275-6.232,6.615-7.155,15.613-2.22,21.622,2.771,58.615,6.1,63.842,2.6,4.09,10.037,12.615,23.659,20.277,1.11.623,2.253,1.241,3.445,1.851q.915.467,1.863.928a119.569,119.569,0,0,0,31.018,9.878q1.793.326,3.647.612,1.986.306,4.042.567c.665.085,1.318.177,1.994.254a6.306,6.306,0,0,0,2.561-2.8,17.966,17.966,0,0,0,1.435-3.817,38.032,38.032,0,0,0,.956-5.209c.267-2.287.306-3.988.306-3.988S327.065,365.969,312.913,358.24Z" transform="translate(-212.05 -188.288)" fill="#21243d"/></g><g transform="translate(888.66 201.888)"><g transform="translate(213.556 56.845)"><path d="M747.761,396.13c6.638,3.513,13,8.478,17.1,15.442q.193-3.4.224-6.959c.044-5.487.124-13.723.382-23.4a87.686,87.686,0,0,0-19.746-9.8C746.545,379.316,747.281,387.79,747.761,396.13Z" transform="translate(-726.686 -271.546)" fill="#5d7db8"/><path d="M745.15,366.341a89.459,89.459,0,0,1,20.143,9.756c.224-7.538.558-15.826,1.063-24.31a78.615,78.615,0,0,0-24.51-11.775C742.745,346.3,744,355.687,745.15,366.341Z" transform="translate(-726.423 -269.421)" fill="#5d7db8"/><path d="M732.848,309.918a130.168,130.168,0,0,1,6.985,19.863s.37,2.059.986,5.262a79.7,79.7,0,0,1,25.112,11.7c.556-8.675,1.3-17.48,2.289-25.823-12.114-8.334-25.161-10.962-35.257-11.475Z" transform="translate(-725.814 -267.353)" fill="#5d7db8"/><path d="M742.793,265.285c-4.041,3.362-7.76,8.685-11.167,15.347,2.29-.259,4.831-.438,7.583-.485a76.139,76.139,0,0,1,34.583,7.548c2.4-7.96,5.409-13.649,9.177-15.634.575-.3,1.155-.572,1.737-.815C772.846,266.413,757.412,262.359,742.793,265.285Z" transform="translate(-725.732 -264.298)" fill="#5d7db8"/><path d="M738.118,284.246a77.264,77.264,0,0,0-8.354.666c-1.554,3.291-3.04,6.856-4.46,10.634a74.518,74.518,0,0,1,5.476,9.378q1.137.034,2.326.1a69.713,69.713,0,0,1,34.951,11.358,189.769,189.769,0,0,1,4.573-24.783A74.586,74.586,0,0,0,738.118,284.246Z" transform="translate(-725.304 -265.646)" fill="#5d7db8"/></g><path d="M739.1,281.3c-2.751.047-5.293.226-7.583.485-.485.947-.961,1.931-1.434,2.931a77.3,77.3,0,0,1,8.354-.666,74.587,74.587,0,0,1,34.512,7.356q.357-1.316.733-2.558A76.137,76.137,0,0,0,739.1,281.3Z" transform="translate(-512.071 -208.602)" fill="#456899"/><path d="M733.5,306.529q-1.19-.07-2.326-.1.7,1.4,1.334,2.8c.111,0,.225.013.337.019,10.1.514,23.144,3.141,35.258,11.475q.169-1.425.349-2.831A69.713,69.713,0,0,0,733.5,306.529Z" transform="translate(-512.145 -210.303)" fill="#456899"/><path d="M741.816,339.8a78.615,78.615,0,0,1,24.51,11.775q.088-1.484.183-2.974A79.7,79.7,0,0,0,741.4,336.9C741.526,337.776,741.665,338.74,741.816,339.8Z" transform="translate(-512.837 -212.365)" fill="#456899"/><path d="M745.7,371.2A87.679,87.679,0,0,1,765.45,381q.039-1.473.084-2.989a89.468,89.468,0,0,0-20.143-9.756C745.5,369.227,745.6,370.206,745.7,371.2Z" transform="translate(-513.107 -214.486)" fill="#456899"/><path d="M747.909,397.924q.091,1.573.168,3.137c6.779,3.727,13.113,8.985,16.639,16.379q.178-2,.3-4.074C760.907,406.4,754.546,401.437,747.909,397.924Z" transform="translate(-513.277 -216.494)" fill="#456899"/><path d="M584.2,327.093c-.135.95-.253,6.415.7,6.55a1.516,1.516,0,0,0,.249.019c.85,0,2.366-5.211,2.491-6.08l1.477-10.325a26.24,26.24,0,0,0-3.884,2.641Z" transform="translate(-502.194 -211.036)" fill="#363a63"/><path d="M595.082,273.939a1.733,1.733,0,0,0-1.472-1.963,1.709,1.709,0,0,0-1.965,1.474l-4.393,30.71a12.948,12.948,0,0,1,3.675-1.18Z" transform="translate(-502.407 -207.971)" fill="#363a63"/><path d="M665.9,370.4l4.61-9.115.178.091a52.577,52.577,0,0,0-6.794-9.392,26.049,26.049,0,0,1-11.313-15.459l-7.246,18.3-33.394-39.363s-.519.228-1.319.614a16.876,16.876,0,0,1,1.008,2.281s-3.017,4.7-8.444,3.835c-.3-.342-.591-.65-.882-.958a8.506,8.506,0,0,0-2.567,3.3c5.928,19.293,12.317,36.834,20.793,48.634l-.042-1.262Z" transform="translate(-503.252 -210.915)" fill="#edbf5a"/><path d="M676.879,355.605l2.42,3.117c.076-.153.155-.309.231-.462A37.46,37.46,0,0,0,676.879,355.605Z" transform="translate(-508.471 -213.631)" fill="#f7e391"/><g transform="translate(148.259 72.256)"><path d="M687.827,397.209c-.1.105-.21.218-.313.319a17.832,17.832,0,0,1-6.26,3.73,59.222,59.222,0,0,1-1.619,6.367,48.712,48.712,0,0,1,10.793,2.9l0-.033a138.564,138.564,0,0,0,.439-16.928A32.391,32.391,0,0,1,687.827,397.209Z" transform="translate(-656.917 -288.455)" fill="#f7e391"/><path d="M739.778,391.67c-.055-1.026-.117-2.053-.179-3.083-.5-8.219-1.248-16.525-2.063-24.247-.1-.982-.208-1.959-.313-2.921-1.181-10.764-2.453-20.124-3.322-26.136-.152-1.057-.3-2.036-.419-2.873-.1-.648-.181-1.2-.258-1.708a139.5,139.5,0,0,0-5.875-18.346q-1.034-2.544-2.172-4.948-.662-1.4-1.359-2.75a70.071,70.071,0,0,0-3.6-6.18c-6.966-10.623-16.206-17.5-28.455-17.647a35.306,35.306,0,0,0-4.779.255c-.184.082-.354.16-.535.242a2.339,2.339,0,0,1-.465,1.079c-2.154,2.677-7.7,8.735-15.815,11.677-1.692,7.1-8.734,40.9,7.125,52.476a42.7,42.7,0,0,1,3.36,3.127c1.527-2.984,3.18-6.121,4.924-9.288,7.786-14.149,17.345-28.878,25.278-33.111a8.4,8.4,0,0,1,4.876-1.165c.64.075,1.064.652,1.3,1.636l.112-.011c-.022.069-.043.136-.064.206.76,3.67-.821,12.483-3.782,23.111q-.393,1.412-.818,2.863c-1.718,5.872-3.809,12.178-6.124,18.406-3.932,10.578-8.507,20.923-12.992,28.491a131.3,131.3,0,0,1-.195,23.551c1.593.708,3.191,1.482,4.787,2.306,1.962,1.014,3.92,2.1,5.861,3.248q1.05.62,2.092,1.261l6.446,1.046h27.854C740.341,405.825,740.163,398.822,739.778,391.67Z" transform="translate(-656.072 -280.827)" fill="#f7e391"/><path d="M674.22,350.484a25.164,25.164,0,0,1-8.354-11.209c-5.894-14.6-2.329-35.064-.544-43.1a2.569,2.569,0,0,1-1.161-.191,2.665,2.665,0,0,0-.273.505s-12.239,21.112-7.55,38.715a26.049,26.049,0,0,0,11.313,15.459,52.612,52.612,0,0,1,6.794,9.392l.616.311c.843-1.758,1.771-3.664,2.776-5.683l-2.42-3.117C675.018,351.209,674.637,350.832,674.22,350.484Z" transform="translate(-655.268 -281.853)" fill="#f7e391"/></g><path d="M609.309,315.372a18.631,18.631,0,0,0-14.383-10.238,15.6,15.6,0,0,0-4.468.084,12.943,12.943,0,0,0-3.675,1.179c-5.864,2.916-7.915,9.708-5.387,12.919,1.034,1.315,2.168.777,3.575-.247a26.249,26.249,0,0,1,3.884-2.641c2.913-1.434,6.76-1.572,12.136,4.1.291.308.582.615.882.958,5.427.868,8.444-3.835,8.444-3.835A16.868,16.868,0,0,0,609.309,315.372Z" transform="translate(-501.939 -210.208)" fill="#f57f7f"/><path d="M691.214,411.719l0,.033.044.017Z" transform="translate(-509.441 -217.427)" fill="#e8c367"/><g transform="translate(155.602 85.511)"><path d="M669.892,295.044a28.4,28.4,0,0,1-3.643,1.054,2.424,2.424,0,0,1-.393.017c-1.785,8.033-5.351,28.5.544,43.1a25.165,25.165,0,0,0,8.354,11.209c.418.348.8.725,1.2,1.087a37.46,37.46,0,0,1,2.652,2.654q.856-1.713,1.776-3.515a42.716,42.716,0,0,0-3.36-3.128C661.158,335.941,668.2,302.148,669.892,295.044Z" transform="translate(-663.145 -295.044)" fill="#edbf5a"/><path d="M694.99,388.081c-1.122,1.893-2.238,3.605-3.337,5.111a138.49,138.49,0,0,1-.439,16.928l.041.049q1.763.677,3.54,1.463A131.319,131.319,0,0,0,694.99,388.081Z" transform="translate(-665.044 -301.339)" fill="#edbf5a"/></g><path d="M645.735,223.963s1.435,3.115,5.562,10.429,8.565,2.85,8.565,2.85,3.346-5.547,7.693-7.1c-1.212-9.145-6.268-28.068-27.4-26.747-27.786,1.737-35.021,45.151-19.971,53.255a13.576,13.576,0,0,0,7.7,1.309,120.057,120.057,0,0,1-4.877-14.459C636.123,240.478,645.735,223.963,645.735,223.963Z" transform="translate(-504.115 -203.327)" fill="#363a63"/><path d="M675.361,260.119l-5.9-10.327c-.713.08-1.154.1-1.154.1s6.633,15.374-9.472,25.667a25.464,25.464,0,0,1-4.138,2.168c.667,1.33,1.676,3.215,3.2,5.847C671.45,277.605,674.763,267.117,675.361,260.119Z" transform="translate(-506.971 -206.471)" fill="#c46767"/><path d="M666.008,291.7c.165-.67.284-1.12.326-1.268l.836.227c2.86-2.409,8.323-6.025,18.664-10.68a2.431,2.431,0,0,0-.268-1.647l-9.972-17.461c-.6,7-3.911,17.487-17.462,23.459,1.266,2.185,2.879,4.873,4.953,8.2a2.829,2.829,0,0,0,1.27,1.084A11.177,11.177,0,0,1,666.008,291.7Z" transform="translate(-507.203 -207.221)" fill="#f57f7f"/><path d="M670.541,292.782c-.012.042-.139.524-.332,1.336,8.113-2.942,13.662-9,15.815-11.677a2.338,2.338,0,0,0,.466-1.079c-10.341,4.655-15.8,8.271-18.664,10.68Z" transform="translate(-507.859 -208.607)" fill="#f57f7f"/><path d="M665.968,296.039c.19-.854.356-1.554.492-2.105a11.163,11.163,0,0,0-1.653,1.914A2.568,2.568,0,0,0,665.968,296.039Z" transform="translate(-507.655 -209.458)" fill="#f57f7f"/><path d="M666.905,292.574c-.041.148-.16.6-.325,1.268.329-.316.714-.664,1.162-1.04Z" transform="translate(-507.775 -209.366)" fill="#f57f7f"/><path d="M670.089,294.893c.193-.812.32-1.294.332-1.336l-2.715-.739c-.448.377-.833.724-1.162,1.04-.136.551-.3,1.251-.492,2.105a2.411,2.411,0,0,0,.394-.017A28.365,28.365,0,0,0,670.089,294.893Z" transform="translate(-507.739 -209.382)" fill="#f57f7f"/><path d="M665.005,243.8l2.719,4.761c3.917-.443,16.121-2.633,9.682-12.444-2.923-4.456-6.023-5.034-8.734-4.064a41.125,41.125,0,0,1,.387,4.8s-14.751,13.433-29,19.81a12.3,12.3,0,0,1-.3,4.068.823.823,0,0,0,.64,1.068c.816.26,1.926-.159,2.4-1.65l1.755.554a3.943,3.943,0,0,1-3.714,3,3.324,3.324,0,0,1-.978-.145,2.643,2.643,0,0,1-1.872-3.346,9.34,9.34,0,0,0,.263-2.781,32.669,32.669,0,0,1-9.251,2.436c5.848,13.907,13.452,20.9,23.954,16.629a17.4,17.4,0,0,1-1.272-2.887Zm-20.165,24.544-.079-1.839a7.715,7.715,0,0,0,4.942-2.374c1.287-1.494,1.809-3.607,1.542-6.282l1.834-.179c.316,3.206-.356,5.791-2,7.681A9.468,9.468,0,0,1,644.841,268.348Z" transform="translate(-505.232 -205.244)" fill="#f57f7f"/><path d="M637.547,253.864l1.8-.381a21.823,21.823,0,0,1,.363,2.767c14.247-6.377,29-19.81,29-19.81a41.209,41.209,0,0,0-.387-4.8c-4.346,1.555-7.693,7.1-7.693,7.1s-4.439,4.464-8.565-2.85S646.5,225.46,646.5,225.46,636.887,241.975,623.775,245a120.091,120.091,0,0,0,4.877,14.459,32.669,32.669,0,0,0,9.251-2.436A21.112,21.112,0,0,0,637.547,253.864Zm8.384-5.8c.792,1.473.573,3.131-.49,3.7s-2.568-.159-3.359-1.632-.572-3.131.49-3.7S645.138,246.592,645.93,248.065Zm-6.487-7.09a5.555,5.555,0,0,1,4.447-.923l-.418,2.728a3.014,3.014,0,0,0-2.333.372,2.349,2.349,0,0,0-.773,1.371l-2.746-.258A5.009,5.009,0,0,1,639.443,240.975Zm-11.556,8.088-2.433-1.3c.787-1.517,3.508-3.877,8.138-1.988l-1.042,2.556C629.182,246.962,628.013,248.846,627.888,249.063Zm6.946,7.631c-1.063.572-2.568-.159-3.359-1.633s-.572-3.131.491-3.7,2.567.159,3.359,1.633S635.9,256.123,634.833,256.694Z" transform="translate(-504.878 -204.825)" fill="#f57f7f"/><path d="M668.216,249.55s.441-.023,1.154-.1l-2.719-4.761L653.334,274.5a17.424,17.424,0,0,0,1.273,2.887,25.463,25.463,0,0,0,4.138-2.168C674.85,264.924,668.216,249.55,668.216,249.55Z" transform="translate(-506.878 -206.126)" fill="#f57f7f"/><path d="M638.638,262.034a2.643,2.643,0,0,0,1.872,3.346,3.328,3.328,0,0,0,.978.144,3.942,3.942,0,0,0,3.713-3l-1.754-.554c-.475,1.492-1.585,1.91-2.4,1.65a.822.822,0,0,1-.64-1.068,12.3,12.3,0,0,0,.3-4.068q-.9.4-1.8.769A9.345,9.345,0,0,1,638.638,262.034Z" transform="translate(-505.876 -207.059)" fill="#d66363"/><path d="M638.546,255.9a21.157,21.157,0,0,1,.356,3.155q.9-.365,1.8-.769a21.76,21.76,0,0,0-.364-2.767Z" transform="translate(-505.878 -206.859)" fill="#d66363"/><path d="M643.865,247.94c-1.063.571-1.283,2.229-.491,3.7s2.3,2.2,3.359,1.632,1.283-2.229.49-3.7S644.928,247.368,643.865,247.94Z" transform="translate(-506.172 -206.333)" fill="#363a63"/><path d="M632.489,253.224c-1.063.572-1.283,2.23-.49,3.7s2.3,2.2,3.359,1.632,1.283-2.229.49-3.7S633.552,252.652,632.489,253.224Z" transform="translate(-505.403 -206.69)" fill="#363a63"/><path d="M642.145,244.2a3.014,3.014,0,0,1,2.333-.372l.418-2.728a5.555,5.555,0,0,0-4.447.923,5.012,5.012,0,0,0-1.822,3.289l2.746.258A2.346,2.346,0,0,1,642.145,244.2Z" transform="translate(-505.883 -205.877)" fill="#363a63"/><path d="M633.714,247.2c-4.63-1.889-7.351.471-8.138,1.988l2.433,1.3c.126-.217,1.294-2.1,4.661-.728Z" transform="translate(-505 -206.249)" fill="#363a63"/><path d="M654.223,259.563l-1.834.179c.266,2.675-.255,4.788-1.542,6.282a7.714,7.714,0,0,1-4.942,2.374l.079,1.839a9.468,9.468,0,0,0,6.24-2.993C653.867,265.354,654.539,262.769,654.223,259.563Z" transform="translate(-506.376 -207.132)" fill="#f57f7f"/><path d="M824.858,290.973c-1.215-7.839-20.635-26.506-37.81-19.339-.582.243-1.162.512-1.737.815-3.768,1.986-6.774,7.674-9.177,15.635q-.376,1.244-.733,2.558a189.819,189.819,0,0,0-4.573,24.783q-.179,1.406-.349,2.831c-.991,8.344-1.733,17.148-2.289,25.823q-.095,1.491-.183,2.974c-.505,8.483-.839,16.772-1.063,24.31q-.044,1.516-.084,2.989c-.258,9.679-.339,17.916-.381,23.4q-.029,3.557-.225,6.959a32.412,32.412,0,0,1,3.015,6.792h12.971C805.846,363.431,825.782,296.938,824.858,290.973Z" transform="translate(-514.519 -207.84)" fill="#456899"/><path d="M695.439,273.108c-.685,1.847-1.315,3.827-1.9,5.913,12.249.144,21.489,7.024,28.455,17.647.025-.072.051-.143.076-.214q.534-1.493,1.08-2.946c1.42-3.778,2.906-7.343,4.46-10.634.473-1,.949-1.984,1.434-2.931,3.408-6.662,7.127-11.985,11.167-15.347C740.217,264.595,709.19,236.025,695.439,273.108Z" transform="translate(-509.599 -206.762)" fill="#456899"/><path d="M725.22,296.368s-.781,2.1-1.156,3.161a85.234,85.234,0,0,1,8.515,17.455A92.13,92.13,0,0,1,737.6,335.3q2.522,17.323,4.259,34.75c.742,7.542,1.359,15.1,1.767,22.667.958.462,2.782.406,2.834,1.468C745.912,382.947,746.3,321.01,725.22,296.368Z" transform="translate(-511.664 -209.623)" fill="#456899"/><path d="M583.85,395.853h-3.516l1.681,4.257h42.926v-.478c-8.887-1.92-15.151-3.779-15.151-3.779Z" transform="translate(-501.939 -216.354)" fill="#363a63"/><path d="M577.951,395.853v4.257h3.9l-1.681-4.257Z" transform="translate(-501.778 -216.354)" fill="#363a63"/><path d="M558.324,351.094a9.127,9.127,0,0,0-8.49-5.776H501.075a4.821,4.821,0,0,0-4.523,6.489l16.557,44.884h59.315v-4.257h2.222ZM535,374.524c-1.982.819-4.452-.607-5.516-3.184s-.321-5.329,1.662-6.148,4.452.607,5.516,3.184S536.986,373.7,535,374.524Z" transform="translate(-496.25 -212.934)" fill="#363a63"/><path d="M713.849,335.112l.036.3c.024-.106.05-.213.074-.32Z" transform="translate(-510.973 -212.243)" fill="#e8c367"/><path d="M713.34,309.784c-.014-.068-.032-.13-.048-.195-.239-.984-.664-1.562-1.3-1.635a8.4,8.4,0,0,0-4.876,1.164l.168,1.348.134-.03-.134.03-.168-1.348c-7.932,4.233-17.492,18.962-25.278,33.111-1.744,3.167-3.4,6.3-4.924,9.288q-.92,1.8-1.776,3.515c-.077.154-.156.31-.232.462-1,2.019-1.933,3.924-2.776,5.683l1.469.743-.749,1.48-4.54,8.976L622.282,373.9l-.886.029-.042-1.268-3.452.044a5.624,5.624,0,0,0-5.526,5.173l.077.009-.528,12.014h15.151v3.779c14.794,3.2,36.855,6.54,49.593,1.782a17.83,17.83,0,0,0,6.26-3.73c.1-.1.209-.214.313-.319a32.359,32.359,0,0,0,3.043-3.646c1.1-1.506,2.215-3.218,3.337-5.111,4.485-7.569,16.56-33.041,19.117-46.9.183-.991.555-1.922.817-2.863C712.518,322.268,714.1,313.455,713.34,309.784Z" transform="translate(-504.077 -210.404)" fill="#edbf5a"/><path d="M611.927,395.853s6.264,1.859,15.151,3.779v-3.779Z" transform="translate(-504.077 -216.354)" fill="#e8c367"/><path d="M622.039,377.355v.007h0Z" transform="translate(-504.761 -215.102)" fill="#d8b571"/><path d="M675.837,364.709c.137.242.284.485.417.727.065-.137.133-.277.2-.416Z" transform="translate(-508.401 -214.246)" fill="#d8b571"/><path d="M672.81,365.014c-.067.139-.134.279-.2.416-.132-.242-.28-.485-.417-.727l-.178-.09-4.61,9.115-45.412,1.5.042,1.261,0,.006h0l.042,1.268.886-.029,46.027-1.526,4.54-8.976.749-1.48Z" transform="translate(-504.758 -214.24)" fill="#e1a746"/><path d="M610.458,383.2c0-.09.028-.175.036-.265-1.593-.188-27.317-3-26.39,12.023h25.94Z" transform="translate(-502.192 -215.457)" fill="#f57f7f"/><path d="M611.927,394.98l.528-12.014-.077-.009c-.007.09-.033.174-.035.265Z" transform="translate(-504.077 -215.481)" fill="#f57f7f"/></g><g transform="translate(-904.577 397.962)"><g transform="translate(0 4.038)"><rect width="2696.157" height="4.046" fill="#aa3949"/></g><g transform="translate(0 0)"><rect width="2696.157" height="9.092" transform="translate(0 0)" fill="#d1535f"/></g><g transform="translate(0 1.008)"><rect width="2696.157" height="3.452" fill="#ef7d8e"/></g></g></g></g></g><text transform="translate(919 675)" fill="#fff" font-size="28" font-family="Poppins-Bold, Poppins" font-weight="700"><tspan x="0" y="0">What is Business SMS Communication?</tspan></text><text transform="translate(917 712)" fill="#fff" font-size="16" font-family="Poppins-Medium, Poppins" font-weight="500"><tspan x="0" y="17">Business is a combination of many processes. The life-blood of any process </tspan><tspan x="0" y="42">out there is communication. A business would need to be in constant </tspan><tspan x="0" y="67">communication with its key stakeholders. Customers, employees, investors </tspan><tspan x="0" y="92">etc., are a few examples. Any communication from a business to its key </tspan><tspan x="0" y="117">stakeholders by using SMS text messaging as a communication medium </tspan><tspan x="0" y="142">can be defined as Business SMS Communication. </tspan><tspan x="0" y="167"></tspan></text></g></svg>